<svg width="72" height="72" viewBox="0 0 72 72" fill="none" xmlns="http://www.w3.org/2000/svg">
<mask id="mask0_620_6827" style="mask-type:luminance" maskUnits="userSpaceOnUse" x="0" y="11" width="50" height="56">
<path fill-rule="evenodd" clip-rule="evenodd" d="M0 11.79H49.7874V66.6465H0V11.79Z" fill="white"/>
</mask>
<g mask="url(#mask0_620_6827)">
<path fill-rule="evenodd" clip-rule="evenodd" d="M39.414 21.228C37.9164 22.8877 36.0916 23.3038 34.5493 22.8975C32.8646 22.5215 31.4902 21.1737 31.1816 19.3753C30.9741 18.1675 31.2907 16.9936 31.9624 16.0756C31.9729 16.0541 31.9785 16.0337 31.9896 16.0121C32.0274 15.9733 32.0683 15.9474 32.1061 15.9092C32.753 15.1101 33.6713 14.5232 34.7681 14.3364C35.4118 14.2273 36.0432 14.2735 36.6356 14.4307C39.2393 15.0177 41.0901 17.9209 39.414 21.228ZM16.0083 56.7347C14.023 58.117 11.2874 57.6373 9.89692 55.662C8.50709 53.6866 8.98978 50.964 10.9751 49.5811C12.9604 48.1989 15.6966 48.6785 17.0865 50.6539C18.4763 52.6293 17.9936 55.3519 16.0083 56.7347ZM48.4556 13.6988L25.0937 11.79L2.21143 45.8793C-1.81864 51.9132 -0.191492 60.0558 5.86043 64.0786L6.4088 64.4356C12.4595 68.4591 20.6566 66.8401 24.6996 60.8061L36.1132 43.7954L47.5683 26.7169C48.2307 25.7199 48.7425 24.6823 49.0889 23.6028C50.2246 20.3093 49.9458 16.7389 48.4556 13.6988Z" fill="#06AED4"/>
</g>
<path fill-rule="evenodd" clip-rule="evenodd" d="M59.6988 58.1366C57.3102 58.5429 55.0423 56.9449 54.6346 54.5682C54.2263 52.1914 55.8317 49.9355 58.2204 49.5293C60.6097 49.1236 62.8769 50.721 63.2853 53.0977C63.693 55.4745 62.0875 57.7303 59.6988 58.1366ZM48.0274 40.5939C45.6388 41.0002 43.3716 39.4021 42.9632 37.0254C42.5555 34.6487 44.161 32.3928 46.5496 31.9865C48.9383 31.5802 51.2055 33.1782 51.6139 35.555C52.0222 37.9317 50.4161 40.1876 48.0274 40.5939ZM69.6699 45.5688L59.0805 29.7073C54.9221 23.436 46.4568 21.5087 40.3801 25.4983C34.3028 29.4885 32.3639 38.2457 36.5229 44.517L47.1123 60.3791C51.2707 66.6499 59.5687 68.4995 65.6461 64.5099L66.1963 64.148C72.273 60.1584 73.8283 51.8402 69.6699 45.5688Z" fill="#06A94B"/>
<mask id="mask1_620_6827" style="mask-type:luminance" maskUnits="userSpaceOnUse" x="22" y="6" width="39" height="44">
<path fill-rule="evenodd" clip-rule="evenodd" d="M22.7705 6H60.8626V49.9446H22.7705V6Z" fill="white"/>
</mask>
<g mask="url(#mask1_620_6827)">
<path fill-rule="evenodd" clip-rule="evenodd" d="M48.0267 40.5939C45.638 41.0002 43.3708 39.4021 42.9625 37.0254C42.5541 34.6487 44.1602 32.3928 46.5489 31.9865C48.9375 31.5802 51.2048 33.1782 51.6131 35.555C52.0214 37.9317 50.4153 40.1876 48.0267 40.5939ZM39.7797 19.6405C39.4297 21.1258 38.2995 22.3397 36.7783 22.7978C36.6029 22.8508 36.4319 22.9125 36.246 22.9445C33.8573 23.3502 31.5901 21.7528 31.1818 19.3754C31.0795 18.7811 31.1043 18.1935 31.2351 17.6411C31.5883 16.1405 32.7377 14.9179 34.2812 14.4709C34.4429 14.4241 34.5984 14.3661 34.7682 14.3371C35.3661 14.2354 35.9566 14.2594 36.5124 14.3895C38.0126 14.7397 39.237 15.8729 39.6918 17.3976C39.7413 17.5653 39.8021 17.7287 39.8324 17.905C39.9347 18.5006 39.9105 19.0875 39.7797 19.6405ZM58.8891 29.4195C58.7385 29.1735 58.6016 28.9269 58.4374 28.6938L48.3758 13.6086L47.6366 12.4988C44.8712 8.33413 40.286 6.01043 35.7503 5.9981C33.317 5.99132 30.8967 6.65532 28.7757 8.04498C22.6897 12.0358 20.824 20.907 25.0673 27.3048L35.8823 43.4998C35.9238 43.5682 35.9783 43.6367 36.0335 43.7051C36.0471 43.7329 36.0471 43.7464 36.0744 43.76C40.3597 49.9672 48.5747 51.8082 54.5783 47.8716L55.1292 47.5177C60.9816 43.6761 62.5697 35.7075 58.8891 29.4195Z" fill="#CD378D"/>
</g>
<path fill-rule="evenodd" clip-rule="evenodd" d="M48.0264 40.5939C45.6378 41.0002 43.3705 39.4021 42.9622 37.0254C42.5539 34.6487 44.1599 32.3928 46.5486 31.9865C48.9373 31.5802 51.2045 33.1782 51.6128 35.555C52.0212 37.9317 50.4151 40.1876 48.0264 40.5939ZM58.9381 29.5133C54.7333 23.4022 46.3912 21.5514 40.3802 25.4984C34.5353 29.3351 32.5357 37.5756 36.0893 43.7798C40.3784 49.9716 48.5816 51.8052 54.579 47.8729L55.1299 47.519C60.9538 43.6966 62.5499 35.7865 58.9381 29.5133Z" fill="#00880D"/>
</svg>
