<svg width="77" height="77" viewBox="0 0 77 77" fill="none" xmlns="http://www.w3.org/2000/svg">
<path fill-rule="evenodd" clip-rule="evenodd" d="M44.9432 59.6239L46.9472 56.5799C47.1732 56.2349 47.6192 56.1109 47.9902 56.2889L51.2792 57.8589C51.9182 58.1639 52.6192 57.5749 52.4292 56.8939L48.1532 41.5399C48.0312 41.1019 47.5772 40.8459 47.1382 40.9679L39.7582 43.0219C39.3192 43.1449 39.0632 43.5999 39.1852 44.0379L43.4602 59.3919C43.6502 60.0729 44.5542 60.2149 44.9432 59.6239" fill="#EE2737"/>
<path fill-rule="evenodd" clip-rule="evenodd" d="M31.3083 59.629L29.3013 56.587C29.0753 56.243 28.6293 56.12 28.2573 56.298L24.9703 57.87C24.3313 58.176 23.6313 57.588 23.8203 56.906L28.0823 41.549C28.2043 41.11 28.6583 40.854 29.0973 40.976L36.4793 43.025C36.9183 43.146 37.1753 43.601 37.0533 44.039L32.7903 59.396C32.6013 60.077 31.6983 60.22 31.3083 59.629" fill="#EE2737"/>
<mask id="mask0_219_595480" style="mask-type:luminance" maskUnits="userSpaceOnUse" x="20" y="16" width="36" height="36">
<path fill-rule="evenodd" clip-rule="evenodd" d="M20.1008 16L55.4358 16L55.4358 51.3355L20.1008 51.3355L20.1008 16Z" fill="white"/>
</mask>
<g mask="url(#mask0_219_595480)">
<path fill-rule="evenodd" clip-rule="evenodd" d="M40.3553 16.7071V16.7071C43.2913 14.9881 47.0573 16.5461 47.9203 19.8371C48.3913 21.6331 49.7943 23.0351 51.5903 23.5041C54.8823 24.3641 56.4433 28.1291 54.7273 31.0661C53.7903 32.6691 53.7913 34.6531 54.7293 36.2541C56.4483 39.1901 54.8903 42.9561 51.5993 43.8191C49.8033 44.2911 48.4013 45.6931 47.9323 47.4891C47.0723 50.7811 43.3073 52.3431 40.3703 50.6261C38.7673 49.6891 36.7833 49.6901 35.1823 50.6281C32.2463 52.3481 28.4803 50.7891 27.6163 47.4981C27.1463 45.7031 25.7423 44.3011 23.9463 43.8311C20.6553 42.9711 19.0933 39.2061 20.8103 36.2691C21.7473 34.6661 21.7463 32.6831 20.8083 31.0811C19.0883 28.1451 20.6473 24.3791 23.9383 23.5161C25.7333 23.0451 27.1353 21.6421 27.6053 19.8461C28.4653 16.5541 32.2303 14.9931 35.1673 16.7091C36.7703 17.6461 38.7533 17.6451 40.3553 16.7071" fill="#FFB31C"/>
</g>
<path fill-rule="evenodd" clip-rule="evenodd" d="M50.9935 33.6621C50.9965 40.9661 45.0785 46.8901 37.7745 46.8921C30.4705 46.8951 24.5465 40.9771 24.5435 33.6731C24.5405 26.3691 30.4585 20.4461 37.7635 20.4421C45.0675 20.4391 50.9905 26.3581 50.9935 33.6621" fill="#EE2737"/>
<path fill-rule="evenodd" clip-rule="evenodd" d="M38.3669 26.1347L40.4539 30.3607C40.5529 30.5587 40.7409 30.6957 40.9599 30.7267L45.6239 31.4027C46.1749 31.4827 46.3939 32.1587 45.9959 32.5467L42.6229 35.8387C42.4649 35.9917 42.3929 36.2147 42.4299 36.4317L43.2289 41.0767C43.3229 41.6247 42.7479 42.0427 42.2559 41.7837L38.0829 39.5927C37.8879 39.4897 37.6539 39.4897 37.4589 39.5937L33.2879 41.7877C32.7959 42.0467 32.2209 41.6297 32.3149 41.0817L33.1089 36.4357C33.1469 36.2177 33.0749 35.9967 32.9159 35.8427L29.5399 32.5537C29.1409 32.1657 29.3609 31.4897 29.9109 31.4097L34.5749 30.7297C34.7929 30.6977 34.9819 30.5607 35.0799 30.3627L37.1639 26.1347C37.4099 25.6367 38.1199 25.6367 38.3669 26.1347" fill="white"/>
</svg>
