<svg width="16" height="16" viewBox="0 0 16 16" fill="none" xmlns="http://www.w3.org/2000/svg">
<path fill-rule="evenodd" clip-rule="evenodd" d="M10.8978 9.65826C10.8955 9.66034 10.8932 9.66243 10.8932 9.66659C10.8516 9.69993 10.8182 9.73327 10.7849 9.76661L10.7849 9.76662L10.7848 9.76664C10.2855 10.2669 9.97616 10.9505 9.97616 11.7092C9.97616 12.0009 10.0178 12.2844 10.1012 12.5428C9.64267 12.5929 9.11744 12.6262 8.54302 12.6262C8.42547 12.6262 8.30041 12.6262 8.18369 12.6179L8.19203 12.6262C7.65846 12.6262 6.93314 12.6262 6.15029 12.5762C6.22449 12.3344 6.25784 12.0843 6.25784 11.8259C6.25784 10.3002 5.04064 9.058 3.47328 8.98296C3.42325 8.97463 3.37323 8.97463 3.32321 8.97463C2.37279 8.97463 1.53158 9.40815 0.988842 10.0918C0.878817 9.67002 0.912201 9.19897 0.944421 8.74433C0.956147 8.57887 0.967719 8.41559 0.972168 8.25765C0.997179 7.48231 1.55576 6.90706 2.37279 6.90706H7.35833C7.8919 6.90706 8.30875 7.33224 8.2754 7.8408C8.2754 7.8408 8.38378 8.59946 7.45004 8.54944C7.45004 8.54944 7.10822 9.27476 7.49172 9.95839C7.9586 10.8171 9.63434 10.9005 10.1346 9.48318C10.5606 8.316 10.7265 7.14049 9.71771 3.99745C9.71771 3.99745 9.1758 4.11417 8.62556 3.91408C8.41713 3.8724 8.33376 3.714 8.33376 3.55559V3.55559C8.33376 3.47222 8.33376 3.43054 8.37545 3.35551C8.5005 3.18877 8.66724 3.11373 8.83398 3.14708C9.05075 3.18877 9.34338 3.23045 9.50928 3.18877L9.38423 2.87196C9.21749 2.46345 9.59265 2.06327 10.0512 2.18833C10.6014 2.30505 11.2859 2.5885 11.536 3.31382C11.9075 4.42828 11.2073 4.20215 10.9426 4.11667L10.9349 4.11417C11.2859 4.28091 13.1284 5.16463 14.0113 7.94918C14.1038 8.316 13.9196 8.66616 13.6203 8.82456C13.5361 8.87458 13.436 8.90793 13.3276 8.91627C13.3035 8.9246 13.2776 8.9246 13.2526 8.9246C13.2276 8.9246 13.2034 8.9246 13.1692 8.91627C13.1442 8.91627 13.1192 8.91627 13.095 8.90793L13.0704 8.90569L13.0704 8.90569C12.9876 8.89816 12.9117 8.89126 12.8274 8.89126H12.8107C12.6115 8.89126 12.4189 8.90793 12.2021 8.95795C11.7028 9.05799 11.2601 9.3081 10.9024 9.64992C10.9024 9.65409 10.9001 9.65617 10.8978 9.65826ZM3.32335 9.8083C3.3567 9.8083 3.38171 9.8083 3.41506 9.81664C4.53222 9.85916 5.42428 10.742 5.42428 11.8258C5.42428 12.0676 5.38259 12.2936 5.29922 12.502C5.23253 12.6846 5.13248 12.8596 5.00743 13.018C4.69062 13.4441 4.19874 13.735 3.63182 13.81C3.53177 13.8276 3.43173 13.8351 3.32335 13.8351C2.56468 13.8351 1.88938 13.4441 1.52255 12.8596C1.50187 12.8286 1.4844 12.7947 1.46616 12.7593C1.45498 12.7376 1.44351 12.7154 1.43084 12.6929L1.42045 12.6727C1.39723 12.6278 1.37026 12.5756 1.35581 12.5178C1.3308 12.4595 1.31412 12.4019 1.29745 12.3427C1.2641 12.2177 1.23909 12.0926 1.23075 11.9592C1.22242 11.9101 1.22242 11.8675 1.22242 11.8258C1.22242 11.7433 1.23075 11.6591 1.23909 11.5757L1.24679 11.5376C1.2609 11.4675 1.275 11.3975 1.28911 11.334C1.33914 11.1756 1.3975 11.0255 1.48087 10.8838C1.47253 10.8838 1.47253 10.8763 1.47253 10.8763C1.82268 10.2335 2.52299 9.8083 3.32335 9.8083ZM13.0751 9.64553C13.0459 9.64136 13.0167 9.64136 12.9867 9.64136C11.8279 9.64136 10.8866 10.5434 10.8866 11.6547C10.8866 11.6981 10.8866 11.7423 10.8949 11.7873C10.9625 12.8378 11.8737 13.6673 12.9867 13.6673C14.1456 13.6673 15.0868 12.7652 15.0868 11.6547C15.0868 10.5718 14.1922 9.68971 13.0751 9.64553ZM4.29168 6.26128H1.83218C1.50491 6.26128 1.23848 5.95922 1.23848 5.58689V4.01817C1.23848 3.64584 1.50491 3.34378 1.83218 3.34378H4.29168C4.61894 3.34378 4.88538 3.64584 4.88538 4.01817V5.58689C4.88538 5.95922 4.61894 6.26128 4.29168 6.26128Z" fill="white"/>
</svg>
