<svg width="393" height="200" viewBox="0 0 393 200" fill="none" xmlns="http://www.w3.org/2000/svg">
<g clip-path="url(#clip0_229_757267)">
<rect x="393" width="200" height="393" rx="24" transform="rotate(90 393 0)" fill="#EAFFEA"/>
<g clip-path="url(#clip1_229_757267)">
<path fill-rule="evenodd" clip-rule="evenodd" d="M0 750H500V0H0V750Z" fill="#76CEFF"/>
<path fill-rule="evenodd" clip-rule="evenodd" d="M197.599 321.388L205.211 324.156C205.211 324.156 230.815 350.452 234.275 353.912C237.735 357.372 291.018 427.956 291.018 427.956L378.21 486.083L414.194 507.535L448.101 531.755L486.162 560.127L500 569.163V0.000244141H0.00012207V624.906C4.31012 625.117 8.83412 625.427 13.5281 625.866C35.6721 627.942 142.932 645.934 147.775 648.702C152.62 651.471 163.691 669.114 163.691 669.114L174.071 700.602L186.527 710.982L210.055 697.834L241.195 688.146C241.195 688.146 259.186 701.986 261.955 702.678C264.723 703.37 306.243 701.986 306.243 701.986L309.702 698.526L319.391 700.602L324.234 697.834L338.074 743.506L347.07 749.042V750H500V587.42C472.563 570.124 402.377 525.831 355.374 495.771C295.862 457.712 260.57 422.42 259.186 418.267C257.803 414.116 218.359 366.368 218.359 366.368L186.527 315.852H194.14L197.599 321.388Z" fill="#E4F0F4"/>
<path fill-rule="evenodd" clip-rule="evenodd" d="M123.163 183.216L142.114 191.427L138.614 201.758L150.566 207.055L148.077 212.849L115.096 197.652L123.163 183.216Z" fill="#F8FDFF"/>
<path fill-rule="evenodd" clip-rule="evenodd" d="M146.641 143.616L165.18 150.779L156.863 167.058L140.416 161.374L146.641 143.616Z" fill="#F8FDFF"/>
<path fill-rule="evenodd" clip-rule="evenodd" d="M179.884 84.4854L138.298 73.5554L135.64 79.0204L175.733 96.4674L179.884 84.4854Z" fill="#F8FDFF"/>
<path fill-rule="evenodd" clip-rule="evenodd" d="M208.611 7.20312L206.371 19.7851L206.107 23.5001H188.177V16.0761L194.716 13.5601L194.452 7.86612L208.611 7.20312Z" fill="#F8FDFF"/>
<path fill-rule="evenodd" clip-rule="evenodd" d="M223.853 26.0098L219.88 37.1348L203.104 37.9288L203.457 29.8328L213.385 29.5858L215.509 24.6848L223.853 26.0098Z" fill="#F8FDFF"/>
<path fill-rule="evenodd" clip-rule="evenodd" d="M307.82 27.0693L311.661 34.2213L287.689 96.6003H282.789L277.215 61.1063L285.57 60.0473L284.114 49.1863L275.77 50.6433L273.518 37.9293L307.82 27.0693Z" fill="#F8FDFF"/>
<path fill-rule="evenodd" clip-rule="evenodd" d="M379.1 25.8774L372.849 40.2524L346.228 32.2344L349.932 23.0964L379.1 25.8774Z" fill="#F8FDFF"/>
<path fill-rule="evenodd" clip-rule="evenodd" d="M345.301 18.7256L339.739 32.2346L331.13 30.5126L338.216 16.3416L345.301 18.7256Z" fill="#F8FDFF"/>
<path fill-rule="evenodd" clip-rule="evenodd" d="M331.13 21.9043L326.23 32.2343L320.932 29.9833L326.76 19.7853L331.13 21.9043Z" fill="#F8FDFF"/>
<path fill-rule="evenodd" clip-rule="evenodd" d="M351.261 76.6016L337.605 105.872L320.27 104.15L336.56 71.1196L351.261 76.6016Z" fill="#F8FDFF"/>
<path fill-rule="evenodd" clip-rule="evenodd" d="M294.047 117.308L264.282 182.588L251.196 176.069L283.722 113.718L294.047 117.308Z" fill="#F8FDFF"/>
<path fill-rule="evenodd" clip-rule="evenodd" d="M271.034 107.655L258.656 131.778L244.927 125.197L254.154 97.7128L271.034 107.655Z" fill="#F8FDFF"/>
<path fill-rule="evenodd" clip-rule="evenodd" d="M81.9072 110.344L56.7322 98.0798L46.2822 112.458L74.1212 124.017L81.9072 110.344Z" fill="#F8FDFF"/>
<path fill-rule="evenodd" clip-rule="evenodd" d="M26.0254 125.85L38.5714 134.731L31.9454 145.216L18.9774 136.242L26.0254 125.85Z" fill="#F8FDFF"/>
<path fill-rule="evenodd" clip-rule="evenodd" d="M98.7632 28.3021L61.9323 24.6521L63.6632 8.42615L97.4943 11.5131L98.7632 28.3021Z" fill="#F8FDFF"/>
<path fill-rule="evenodd" clip-rule="evenodd" d="M36.1748 28.772L21.2328 27.033L20.5278 32.531L35.4698 34.082L36.1748 28.772Z" fill="#F8FDFF"/>
<path fill-rule="evenodd" clip-rule="evenodd" d="M116.606 51.7021L83.146 47.4731L82.271 55.9311L115.096 62.9131L116.606 51.7021Z" fill="#F8FDFF"/>
<path fill-rule="evenodd" clip-rule="evenodd" d="M189.685 94.7764L208.611 103.132L206.319 108.777L187.047 100.139L189.685 94.7764Z" fill="#F8FDFF"/>
<path fill-rule="evenodd" clip-rule="evenodd" d="M129.344 47.229C129.344 47.97 129.271 48.916 129.147 50.004L115.844 48.273L118.111 20.86C118.114 20.801 118.111 20.74 118.098 20.68L115.888 10.666C118.476 10.842 121.003 11.001 123.465 11.148C126.536 25.485 129.344 40.448 129.344 47.229Z" fill="#D3E9EF"/>
<path fill-rule="evenodd" clip-rule="evenodd" d="M165.001 204.973L169.098 194.872C169.222 194.564 169.075 194.212 168.766 194.087C168.457 193.961 168.105 194.11 167.98 194.418L163.835 204.64L155.966 202.391L158.096 195.736C158.188 195.445 158.049 195.13 157.771 195.003L148.747 190.91L158.284 171.216L185.073 181.041C185.376 181.152 185.712 181.006 185.836 180.708L204.214 136.932L219.27 143.353L214.249 151.545L210.415 152.64C210.238 152.691 210.095 152.819 210.024 152.988L187.263 207.442L177.577 208.566L165.001 204.973Z" fill="#D3E9EF"/>
<path fill-rule="evenodd" clip-rule="evenodd" d="M205.943 58.2524L212.395 75.2744L206.64 76.9674C206.62 76.9734 206.605 76.9904 206.585 76.9984C206.554 77.0104 206.522 77.0144 206.492 77.0324L201.617 80.0554L197.604 72.0554C197.531 71.9114 197.405 71.8024 197.251 71.7524C197.098 71.7024 196.931 71.7164 196.787 71.7904L188.165 76.2564L183.395 72.7084C183.217 72.5764 182.981 72.5524 182.78 72.6454L179.328 74.2544L171.123 69.3464L172.8 56.7174L205.943 58.2524Z" fill="#D3E9EF"/>
<path fill-rule="evenodd" clip-rule="evenodd" d="M216.65 206.867C218.182 198.94 220.663 186.899 221.537 184.535L234.168 190.174C231.802 196.403 229.796 202.715 228.152 209.105L216.65 206.867Z" fill="#D3E9EF"/>
<path fill-rule="evenodd" clip-rule="evenodd" d="M222.225 183.521C223.541 181.639 226.621 175.915 235.178 159.295C237.151 155.464 239.122 151.614 240.905 148.122L251.433 154.429C249.021 159.009 246.415 163.955 243.589 169.316C240.175 175.793 237.185 182.373 234.6 189.045L222.225 183.521Z" fill="#D3E9EF"/>
<path fill-rule="evenodd" clip-rule="evenodd" d="M116.9 20.8511L114.646 48.1171L104.168 46.7541L102.875 30.1991L100.618 9.42712C105.443 9.89612 110.122 10.2671 114.633 10.5801L116.9 20.8511Z" fill="#D3E9EF"/>
<path fill-rule="evenodd" clip-rule="evenodd" d="M17.9824 36.7573L46.2814 40.4393L33.0464 81.1113L12.1434 73.3703L17.9824 36.7573Z" fill="#D3E9EF"/>
<path fill-rule="evenodd" clip-rule="evenodd" d="M35.7734 146.782L42.9124 134.426L46.3824 130.131L70.2184 138.699L66.7234 146.001C66.6844 146.083 66.6644 146.172 66.6644 146.261C66.6644 146.333 66.6774 146.404 66.7024 146.472C66.7604 146.626 66.8774 146.75 67.0284 146.815L81.9074 153.238L78.6234 160.301L35.7734 146.782Z" fill="#D3E9EF"/>
<path fill-rule="evenodd" clip-rule="evenodd" d="M35.2158 147.871L48.3408 152.012L42.6638 171.703L26.7878 167.614L35.2158 147.871Z" fill="#D3E9EF"/>
<path fill-rule="evenodd" clip-rule="evenodd" d="M372.307 184.84L370.626 198.158L366.971 199.657L362.243 199.214C362.978 194.325 363.727 189.335 364.47 184.38L372.307 184.84Z" fill="#D3E9EF"/>
<path fill-rule="evenodd" clip-rule="evenodd" d="M401.931 44.8735L438.793 67.4925C439.183 67.7305 439.673 67.7295 440.061 67.4895L447.106 63.1145L462.372 66.3175C462.876 66.4225 463.391 66.1975 463.655 65.7555L475.667 45.6765L486.917 49.1595L480.62 87.4985C480.618 87.5165 480.618 87.5345 480.617 87.5525C480.617 87.5555 480.615 87.5585 480.614 87.5615C480.613 87.5735 480.613 87.5845 480.613 87.5955V87.5965L480.614 87.5975C480.614 87.6475 480.619 87.6975 480.632 87.7455L485.029 104.865L472.263 106.191C471.995 106.219 471.779 106.42 471.731 106.686L470.808 111.901L459.913 113.189C459.629 113.223 459.408 113.451 459.383 113.736L458.659 122.047C458.658 122.064 458.657 122.082 458.657 122.1C458.657 122.409 458.893 122.672 459.207 122.7C459.539 122.729 459.831 122.483 459.861 122.151L460.541 114.33L471.394 113.047C471.659 113.015 471.87 112.814 471.917 112.553L472.839 107.344L485.331 106.046L488.795 119.53L483.732 154.029L475.46 152.007C473.185 150.974 461.616 145.737 459.153 144.916C458.61 144.735 456.206 144.182 445.762 141.812V126.048L452.195 124.124C452.361 124.075 452.497 123.956 452.57 123.798C452.642 123.64 452.642 123.458 452.572 123.3L449.436 116.303C449.299 115.999 448.943 115.863 448.639 115.999C448.334 116.136 448.199 116.491 448.335 116.796L451.19 123.166L444.987 125.021C444.731 125.098 444.556 125.332 444.556 125.599V141.538C444.263 141.471 443.991 141.41 443.685 141.34C437.974 140.045 430.759 138.408 422.549 136.531L426.407 116.011L433.744 119.813L432.123 129.966C432.071 130.297 432.296 130.604 432.624 130.657C432.953 130.709 433.262 130.485 433.315 130.156L435.004 119.573C435.041 119.32 434.916 119.062 434.686 118.942L426.653 114.779L429.592 101.428L433.619 103.799C433.907 103.968 434.276 103.872 434.445 103.585C434.615 103.297 434.519 102.928 434.232 102.76L422.294 95.7305L425.757 80.4915C425.833 80.1665 425.627 79.8435 425.302 79.7695C424.978 79.6955 424.655 79.8995 424.581 80.2245L412.323 134.187C404.651 132.422 396.39 130.51 387.854 128.51L397.242 94.5125C397.286 94.3535 397.264 94.1845 397.179 94.0435L394.754 89.9635L399.978 77.6985C400.043 77.5465 400.042 77.3745 399.977 77.2225C399.911 77.0715 399.786 76.9535 399.631 76.8965L388.571 72.8335C389.142 71.3855 389.672 69.9765 390.126 68.6485C391.779 63.8195 396.202 55.0895 401.931 44.8735Z" fill="#D3E9EF"/>
<path fill-rule="evenodd" clip-rule="evenodd" d="M390.792 52.7969C387.815 58.5319 385.557 63.3759 384.42 66.6969C383.377 69.7459 381.962 73.2049 380.358 76.8069L373.218 73.2359C372.92 73.0879 372.558 73.2089 372.408 73.5059C372.365 73.5929 372.345 73.6849 372.345 73.7759C372.345 73.9969 372.467 74.2099 372.678 74.3159L379.861 77.9079C375.253 88.1079 369.29 99.2429 365.93 105.514C364.168 108.801 363.443 110.159 363.196 110.776C363.034 111.181 362.822 111.854 362.582 112.691L341.097 108.995L371.229 45.0079C378.785 47.8759 386.288 50.9319 390.792 52.7969Z" fill="#D3E9EF"/>
<path fill-rule="evenodd" clip-rule="evenodd" d="M353.513 38.9263C354.502 39.1993 355.583 39.5233 356.722 39.8813L350.057 52.6783L341.858 49.1323L347.099 37.6133C349.417 37.9663 351.596 38.3973 353.513 38.9263Z" fill="#D3E9EF"/>
<path fill-rule="evenodd" clip-rule="evenodd" d="M234.055 18.6289L235.505 25.4729C235.564 25.7519 235.81 25.9509 236.095 25.9509H250.607L251.041 43.6349H205.629C204.382 42.4039 203.136 41.1779 201.896 39.9629L221.32 39.5809C221.556 39.5759 221.768 39.4339 221.862 39.2159L223.487 35.4499L238.377 36.3959C238.709 36.4169 238.996 36.1649 239.017 35.8319C239.035 35.5089 238.785 35.2129 238.453 35.1919L223.994 34.2739L228.241 24.4349C228.355 24.1699 228.264 23.8579 228.022 23.6939L224.561 21.3839L225.096 17.0209L234.055 18.6289Z" fill="#D3E9EF"/>
<path fill-rule="evenodd" clip-rule="evenodd" d="M1.55524 42.8438L0.000244141 40.0228V59.7878L13.7952 59.6898L15.7622 47.3538L1.55524 42.8438Z" fill="#B7EA86"/>
<path fill-rule="evenodd" clip-rule="evenodd" d="M37.689 14.0873L21.171 12.2303L19.666 20.6543L36.001 22.7463L37.689 14.0873Z" fill="#B7EA86"/>
<path fill-rule="evenodd" clip-rule="evenodd" d="M323.661 117.253L315.319 136.859L289.5 143.072C289.5 143.072 267.815 183.866 257.418 208.782C247.021 233.698 247.2 295.783 247.2 295.783L282.155 303.153L315.305 332.931L322.455 307.64L352.984 303.153L349.463 283.9L372.158 127.911L323.661 117.253Z" fill="#B7EA86"/>
<path fill-rule="evenodd" clip-rule="evenodd" d="M86.5816 143.072L94.2166 128.986L78.9466 121.857L72.0746 136.217L86.5816 143.072Z" fill="#B7EA86"/>
<path fill-rule="evenodd" clip-rule="evenodd" d="M401.357 195.901L415.128 194.99L416.279 187.034L388.091 185.164L385.417 202.95L392.507 202.68L401.357 195.901Z" fill="#B7EA86"/>
<path fill-rule="evenodd" clip-rule="evenodd" d="M156.863 115.734L145.834 111.38L141.868 122.994L151.194 124.226L156.863 115.734Z" fill="#B7EA86"/>
<path fill-rule="evenodd" clip-rule="evenodd" d="M267.596 38.2861L251.491 0.00012207H264.224L271.6 28.8041L267.596 38.2861Z" fill="#B7EA86"/>
<path fill-rule="evenodd" clip-rule="evenodd" d="M469.364 737.278L474.218 720.742L478.533 717.286L484.215 723.924C479.476 728.249 474.444 732.786 469.364 737.278ZM465.484 740.69L459.274 732.711L472.574 722.058L467.667 738.775C466.939 739.416 466.212 740.053 465.484 740.69ZM475.932 714.9L477.677 716.425L474.811 718.721L475.932 714.9ZM479.005 704.436L488.132 708.053L478.63 715.664L476.306 713.627L479.005 704.436ZM482.154 693.706L489.781 698.113L494.501 702.952L489.216 707.184L479.345 703.273L482.154 693.706ZM468.528 704.969L404.055 725.719L390.6 720.762L388.222 701.986L398.172 691.065C400.941 690.082 410.738 686.593 412.591 685.853C413.928 685.318 424.413 678.219 436.28 670.055L445.208 679.991C445.393 680.197 445.696 680.251 445.941 680.119L458.833 673.211L468.007 685.472C468.055 685.538 468.117 685.592 468.188 685.633L480.342 692.658L468.528 704.969ZM389.897 724.281L373.054 729.168L364.308 728.19C364.359 728.141 364.422 728.108 364.469 728.056L387.155 703.158L389.449 721.277C389.449 721.279 389.451 721.28 389.451 721.281C389.451 721.285 389.451 721.288 389.452 721.291L389.897 724.281ZM316.944 637.625L342.904 629.514L371.944 710.898L360.593 723.356L350.726 726.132C346.839 715.93 332.046 677.12 316.944 637.625ZM326.913 692.916L262.766 695.862L241.241 681.632C241.093 681.535 240.911 681.507 240.74 681.556C240.654 681.582 237.238 682.578 232.386 684.043L236.734 658.018C238.154 658.266 239.351 658.468 240.297 658.621C265.34 662.645 320.052 671.068 323.468 671.593C325.853 677.842 328.145 683.848 330.298 689.486L326.913 692.916ZM206.273 692.445C202.184 693.918 198.604 695.752 195.446 697.369C188.524 700.914 184.793 702.613 182.229 699.368C178.572 694.74 169.114 656.662 166.215 644.747C173.283 646.106 180.12 647.416 186.608 648.655L185.336 659.679C185.292 660.016 185.534 660.309 185.865 660.347C186.197 660.385 186.495 660.148 186.533 659.818L187.796 648.882C208.964 652.924 226.279 656.176 235.546 657.81L231.098 684.432C223.597 686.707 213.318 689.909 206.273 692.445ZM188.489 642.876L190.175 628.27C190.175 628.269 190.175 628.268 190.175 628.267C190.175 628.266 190.175 628.265 190.175 628.264L190.97 621.369L190.971 621.368V621.366L192.045 612.063L207.456 620.821C207.518 620.855 207.585 620.88 207.655 620.891L269.672 631.217L279.471 658.68C265.423 656.493 251.059 654.242 241.253 652.666C234.364 651.558 214.257 647.796 188.489 642.876ZM164.275 638.233L159.545 625.27L188.908 628.725L187.301 642.648C180.009 641.256 172.277 639.772 164.275 638.233ZM136.374 632.851C138.438 620.267 140.244 608.89 140.244 607.618C140.244 606.678 137.565 602.088 133.61 595.82L149.067 600.06L154.939 616.153C154.943 616.165 154.947 616.176 154.952 616.188L158.076 624.75C158.08 624.763 158.085 624.776 158.091 624.79L162.899 637.968C154.288 636.312 145.378 634.592 136.374 632.851ZM45.9584 615.276L49.6114 583.066L52.2534 583.458C52.2574 583.459 52.2604 583.457 52.2644 583.458L72.4674 586.454C72.4714 586.455 72.4754 586.458 72.4804 586.459C72.4854 586.459 72.4894 586.457 72.4924 586.458L79.4434 587.489C79.4444 587.489 79.4454 587.49 79.4464 587.49C79.4484 587.491 79.4504 587.49 79.4534 587.49L96.6344 590.039C96.6384 590.039 96.6414 590.042 96.6454 590.043C96.6514 590.044 96.6564 590.042 96.6624 590.043L113.877 592.595C113.881 592.596 113.884 592.599 113.887 592.6C113.894 592.601 113.9 592.599 113.906 592.6L130.249 595.024C134.526 601.677 137.507 606.56 137.83 607.696C137.762 609.116 136.113 619.529 134.003 632.392C102.674 626.333 70.4404 620.054 45.9584 615.276ZM22.8384 610.759L25.3434 579.465L48.4184 582.886L44.7704 615.045C36.3954 613.41 28.9684 611.959 22.8384 610.759ZM7.53437 607.765L10.1294 596.979C10.1404 596.934 10.1344 596.888 10.1434 596.842C10.1634 596.736 10.1934 596.633 10.2024 596.523L11.7814 577.453L24.1474 579.287L21.6464 610.527C15.2864 609.283 10.4404 608.335 7.53437 607.765ZM11.8824 576.249L14.4604 545.124L26.7804 546.412L25.5564 561.694V561.696L24.2444 578.083L11.8824 576.249ZM16.0434 526.015C16.0464 525.989 16.0394 525.964 16.0404 525.937L28.4084 526.079L26.8764 545.211L14.5604 543.923L16.0434 526.015ZM37.7154 524.98L36.6374 514.289C43.6504 513.345 50.2604 512.481 50.8224 512.481C51.1554 512.481 51.4254 512.212 51.4254 511.878C51.4254 511.545 51.1554 511.275 50.8224 511.275C50.1374 511.275 42.8714 512.232 36.5164 513.088L34.2224 490.346L57.7514 486.694L60.1164 511.297L58.7204 525.221L37.7154 524.98ZM29.6164 524.886L27.8524 515.482C30.2004 515.16 32.8254 514.802 35.4414 514.45L36.5014 524.966L29.6164 524.886ZM15.9254 524.729C15.4884 522.03 13.5034 509.613 11.3564 493.896L22.2584 492.204L28.3864 524.873L15.9254 524.729ZM5.92737 444.79L12.9144 442.389L22.0364 491.018L11.1934 492.701C9.16137 477.723 7.01837 459.959 5.92737 444.79ZM5.20637 429.353C5.09937 420.656 5.57337 412.449 6.70437 404.431L24.4914 399.097L34.2854 433.773L5.83937 443.545C5.48737 438.424 5.26037 433.621 5.20637 429.353ZM17.3614 366.725L32.7354 369.594C32.9954 369.642 33.2574 369.515 33.3794 369.28L41.7994 353.218L57.4324 386.857L26.4644 397.208L25.3944 393.422C25.2144 392.78 24.5474 392.407 23.9064 392.589C23.3754 392.738 23.0284 393.222 23.0284 393.748C23.0284 393.856 23.0424 393.966 23.0734 394.076L24.1644 397.937L6.89737 403.115C8.73437 390.925 12.1214 379.142 17.3614 366.725ZM29.8544 341.692L41.0824 351.988L32.5174 368.326L17.8384 365.594C21.1184 357.96 25.1044 350.07 29.8544 341.692ZM31.0874 339.529C36.4244 330.278 41.5304 318.418 46.1214 306.119C55.5124 315.45 72.9804 333.144 76.6874 338.381C76.6984 338.395 76.7064 338.411 76.7184 338.424C77.0424 338.884 77.2694 339.258 77.3574 339.505C77.7794 340.683 83.9774 355.033 92.6804 375.077L58.5834 386.472L42.3794 351.603C42.3674 351.579 42.3474 351.563 42.3334 351.541C42.3134 351.508 42.2934 351.477 42.2654 351.448C42.2564 351.437 42.2504 351.423 42.2394 351.412L30.4674 340.617C30.6754 340.254 30.8764 339.895 31.0874 339.529ZM55.1794 279.524L66.7634 284.224L66.7314 284.287C66.7014 284.346 66.6804 284.409 66.6714 284.475L65.5934 291.723C65.5884 291.753 65.5864 291.783 65.5864 291.812C65.5864 291.982 65.6574 292.147 65.7864 292.261L74.5334 300.087L59.3504 317.734C54.1894 312.458 49.3024 307.579 46.5824 304.879C49.7304 296.364 52.6274 287.675 55.1794 279.524ZM65.0804 244.859C71.6724 246.113 78.3914 247.403 85.0794 248.699L67.3184 283.148L55.5394 278.368C59.9684 264.134 63.3184 251.674 65.0804 244.859ZM89.1944 243.346L111.706 199.675L149.053 217.073L135.34 252.648C121.682 249.749 105.404 246.498 89.1944 243.346ZM75.1844 240.643L95.1444 195.17L110.564 199.268L87.9624 243.107C83.6764 242.275 79.4014 241.451 75.1844 240.643ZM66.6774 239.019C68.6594 234.411 77.0174 214.965 86.4614 192.862L93.9654 194.856L73.9694 240.41C71.5144 239.941 69.0794 239.476 66.6774 239.019ZM51.0154 236.059L58.7034 213.605L70.4104 215.032C64.7954 228.133 60.8864 237.222 60.7514 237.536C60.7034 237.645 60.6714 237.759 60.6374 237.874C57.3424 237.25 54.1244 236.643 51.0154 236.059ZM42.1044 234.391L49.6254 212.499L57.4794 213.456L49.8184 235.835C47.1604 235.336 44.5784 234.853 42.1044 234.391ZM53.0694 211.704L56.0514 197.765C56.1224 197.437 55.9124 197.12 55.5874 197.05C55.2614 196.98 54.9414 197.187 54.8714 197.513L51.8674 211.558L45.6354 210.799L47.6794 191.265C47.7144 190.971 47.5224 190.697 47.2364 190.62L20.8834 183.543L26.3354 168.742L55.0214 176.129C55.1354 176.159 55.2574 176.153 55.3694 176.115L61.8744 173.852L74.1214 176.676L60.7014 212.634L53.0694 211.704ZM4.36337 205.771L11.8754 182.891L19.9484 184.541L46.4264 191.651L44.4384 210.653L4.36337 205.771ZM2.00837 179.645L10.3374 148.915L29.7104 157.695L25.4034 167.786C25.4014 167.791 25.4024 167.796 25.4004 167.8C25.3984 167.805 25.3944 167.809 25.3924 167.814L19.7014 183.259L2.00837 179.645ZM35.2164 147.87L48.3404 152.011L42.6644 171.702L26.7884 167.613L35.2164 147.87ZM35.7734 146.782L42.9124 134.425L46.3834 130.131L70.2184 138.698L66.7234 146.001C66.6844 146.083 66.6644 146.172 66.6644 146.261C66.6644 146.333 66.6774 146.404 66.7024 146.472C66.7604 146.626 66.8784 146.75 67.0294 146.815L81.9074 153.238L78.6234 160.3L35.7734 146.782ZM26.4344 120.226C39.6114 113.236 48.6904 102.005 49.5784 100.88C51.3434 98.8302 53.1504 96.7572 54.9624 94.7012L83.9504 110.003L75.8214 126.99L62.0164 122.779C61.6974 122.681 61.3604 122.861 61.2634 123.179C61.2454 123.238 61.2374 123.298 61.2374 123.356C61.2374 123.614 61.4044 123.853 61.6644 123.932L75.2954 128.091L70.7414 137.605L46.3874 128.851C46.1454 128.764 45.8754 128.84 45.7144 129.04L42.3264 133.232L26.4344 120.226ZM10.2414 85.2992C10.2764 85.3182 10.2974 85.3552 10.3374 85.3682L32.6624 92.4982C32.9794 92.5992 33.3194 92.4242 33.4204 92.1072C33.5224 91.7862 33.3464 91.4502 33.0294 91.3492L10.7034 84.2192C10.6064 84.1882 10.5094 84.1902 10.4154 84.2072L11.9494 74.5842L33.2164 82.4592C33.3704 82.5172 33.5404 82.5082 33.6884 82.4372C33.8364 82.3652 33.9484 82.2362 33.9984 82.0812L47.4984 40.5972L80.1394 44.8442L77.7044 63.1082C72.2794 66.5192 60.8564 78.8112 50.2854 90.8692L40.9714 85.9522L48.7804 74.4302L53.0294 75.2382C53.2334 75.2772 53.4424 75.2082 53.5844 75.0562L57.3524 70.9972C57.5784 70.7542 57.5654 70.3722 57.3214 70.1442C57.0764 69.9182 56.6954 69.9322 56.4684 70.1752L52.9274 73.9912L48.6154 73.1712C48.3784 73.1262 48.1384 73.2262 48.0034 73.4252L39.5954 85.8332C39.5264 85.9342 39.4914 86.0522 39.4914 86.1722C39.4914 86.2202 39.4964 86.2702 39.5094 86.3182C39.5514 86.4842 39.6614 86.6252 39.8124 86.7052L49.4684 91.8022C47.9384 93.5522 46.4294 95.2942 44.9644 96.9962C44.9344 97.0302 44.9044 97.0682 44.8754 97.1042C44.7044 97.3222 27.5074 118.96 7.08337 119.73C6.29637 119.76 5.51937 119.763 4.74637 119.753L10.2414 85.2992ZM17.9824 36.7572L46.2814 40.4392L33.0464 81.1112L12.1434 73.3702L17.9824 36.7572ZM18.1614 35.5642L19.7084 24.6522C19.7994 24.7282 19.9084 24.7852 20.0354 24.7972L101.806 32.0072L102.946 46.5942L18.1614 35.5642ZM23.0094 1.36224C50.9024 4.20324 80.4524 7.24624 95.7344 8.92424C96.9634 9.05824 98.1794 9.18224 99.3924 9.30324L101.674 30.3112L101.711 30.7882L20.1414 23.5952C20.0364 23.5862 19.9404 23.6112 19.8504 23.6512L23.0094 1.36224ZM166.525 7.10724L184.677 6.41424V23.5002C178.541 17.8422 173.603 13.6182 171.029 12.0922C168.82 10.7842 166.12 9.78524 162.977 8.98924L166.525 7.10724ZM210.02 5.44824C210.007 5.48724 209.986 5.52424 209.981 5.56824L208.241 20.0652C208.239 20.0892 208.238 20.1122 208.238 20.1362V24.7062L186.613 25.2962C186.367 25.0672 186.124 24.8412 185.883 24.6162V6.36824L210.02 5.44824ZM218.909 5.10924L217.806 15.1392L217.027 20.3492L209.512 19.5972L211.179 5.71124C211.192 5.60224 211.166 5.50024 211.125 5.40524L218.909 5.10924ZM223.92 16.8102C223.914 16.8322 223.901 16.8502 223.899 16.8732L223.319 21.6052C223.286 21.8332 223.392 22.0532 223.582 22.1802L226.933 24.4182L220.907 38.3822L200.686 38.7802C196.213 34.4072 191.851 30.2092 187.866 26.4682L208.857 25.8952C209.183 25.8862 209.444 25.6192 209.444 25.2922V20.8032L217.479 21.6072C217.799 21.6382 218.088 21.4132 218.135 21.0952L218.91 15.9112L223.92 16.8102ZM234.054 18.6292L235.505 25.4732C235.563 25.7522 235.81 25.9512 236.094 25.9512H250.606L251.041 43.6352H205.629C204.381 42.4042 203.135 41.1772 201.895 39.9632L221.32 39.5802C221.556 39.5752 221.767 39.4332 221.861 39.2162L223.487 35.4502L238.376 36.3952C238.708 36.4172 238.995 36.1642 239.016 35.8322C239.034 35.5092 238.785 35.2132 238.453 35.1922L223.994 34.2742L228.24 24.4352C228.355 24.1692 228.263 23.8572 228.021 23.6942L224.561 21.3842L225.095 17.0212L234.054 18.6292ZM251.49 12.8222L254.163 9.79724L266.108 36.7382L266.561 39.1092L264.924 92.4092L253.302 86.5982L251.49 12.8222ZM278 98.9462L266.113 93.0033L267.601 44.5482L278 98.9462ZM277.215 105.297C275.121 109.318 270.405 118.35 261.241 135.785L240.097 126.389L252.282 92.8302L277.215 105.297ZM315.783 36.1682C319.334 36.0752 334.104 35.8132 345.855 37.4322L314.594 106.145L289.687 103.518L315.783 36.1682ZM353.512 38.9262C354.502 39.1992 355.583 39.5232 356.721 39.8812L350.056 52.6782L341.857 49.1322L347.098 37.6122C349.417 37.9662 351.595 38.3972 353.512 38.9262ZM370.096 44.5802L339.85 108.809L315.859 106.278L341.358 50.2302L350.093 54.0082C350.383 54.1342 350.72 54.0142 350.867 53.7332L357.888 40.2522C361.564 41.4402 365.811 42.9662 370.096 44.5802ZM390.792 52.7972C387.815 58.5312 385.556 63.3752 384.42 66.6962C383.377 69.7462 381.962 73.2042 380.358 76.8072L373.218 73.2362C372.92 73.0882 372.557 73.2082 372.408 73.5062C372.365 73.5932 372.344 73.6852 372.344 73.7752C372.344 73.9972 372.467 74.2092 372.677 74.3152L379.861 77.9072C375.253 88.1072 369.29 99.2422 365.929 105.513C364.168 108.8 363.443 110.158 363.196 110.776C363.034 111.18 362.822 111.854 362.582 112.69L341.096 108.994L371.228 45.0082C378.785 47.8752 386.288 50.9322 390.792 52.7972ZM401.93 44.8732L438.793 67.4922C439.182 67.7312 439.673 67.7303 440.06 67.4893L447.105 63.1142L462.372 66.3172C462.876 66.4232 463.39 66.1972 463.654 65.7562L475.667 45.6762L486.917 49.1592L480.62 87.4982C480.617 87.5162 480.617 87.5342 480.616 87.5522C480.616 87.5552 480.614 87.5582 480.613 87.5622C480.612 87.5732 480.612 87.5842 480.612 87.5952V87.5962L480.613 87.5972C480.613 87.6472 480.619 87.6972 480.632 87.7452L485.028 104.864L472.262 106.19C471.995 106.218 471.778 106.42 471.73 106.685L470.807 111.901L459.913 113.188C459.629 113.222 459.407 113.45 459.383 113.736L458.658 122.046C458.657 122.063 458.656 122.081 458.656 122.099C458.656 122.408 458.892 122.672 459.207 122.699C459.539 122.728 459.831 122.482 459.86 122.15L460.541 114.329L471.393 113.046C471.658 113.014 471.87 112.814 471.917 112.552L472.839 107.343L485.331 106.045L488.795 119.529L483.731 154.028L475.46 152.006C473.184 150.973 461.615 145.736 459.152 144.915C458.609 144.735 456.206 144.181 445.761 141.811V126.048L452.194 124.124C452.36 124.074 452.497 123.955 452.569 123.797C452.641 123.639 452.641 123.458 452.571 123.299L449.435 116.302C449.299 115.998 448.942 115.862 448.638 115.999C448.334 116.135 448.198 116.49 448.335 116.796L451.189 123.165L444.986 125.021C444.73 125.097 444.555 125.332 444.555 125.598V141.537C444.262 141.47 443.99 141.409 443.684 141.34C437.973 140.044 430.759 138.407 422.549 136.53L426.406 116.01L433.744 119.812L432.123 129.966C432.07 130.296 432.296 130.603 432.624 130.656C432.953 130.708 433.261 130.485 433.314 130.155L435.004 119.572C435.041 119.32 434.916 119.062 434.685 118.942L426.652 114.778L429.592 101.427L433.619 103.798C433.906 103.967 434.275 103.871 434.444 103.585C434.614 103.296 434.518 102.927 434.231 102.759L422.294 95.7302L425.757 80.4912C425.833 80.1672 425.627 79.8432 425.301 79.7702C424.977 79.6952 424.654 79.8992 424.581 80.2242L412.322 134.186C404.65 132.422 396.389 130.509 387.853 128.509L397.241 94.5122C397.286 94.3542 397.263 94.1842 397.178 94.0442L394.754 89.9642L399.977 77.6982C400.043 77.5472 400.042 77.3742 399.976 77.2222C399.911 77.0712 399.786 76.9532 399.631 76.8962L388.57 72.8332C389.141 71.3852 389.672 69.9762 390.126 68.6482C391.778 63.8192 396.201 55.0892 401.93 44.8732ZM418.181 17.5582L447.171 35.9772L430.905 59.8222L403.115 42.7692C407.64 34.7882 412.879 26.0262 418.181 17.5582ZM447.115 17.7592L473.525 34.3092L471.485 42.2872L457.058 39.4022L439.591 28.3032L447.115 17.7592ZM473.206 45.0922L462.026 63.7792L448.11 60.8602L454.961 48.5132C455.124 48.2202 455.017 47.8542 454.726 47.6932C454.434 47.5312 454.068 47.6362 453.906 47.9272L446.847 60.6502C446.635 60.6552 446.427 60.6962 446.244 60.8102L439.421 65.0472L431.934 60.4532L448.189 36.6252L455.955 41.5582C456.08 41.6382 456.218 41.6942 456.365 41.7232L473.206 45.0922ZM498.593 52.7732L493.468 87.6832L481.919 87.0322L488.08 49.5192L498.593 52.7732ZM493.293 88.8812L489.247 116.445L482.005 88.2442L493.293 88.8812ZM468.052 155.283L461.805 170.579L452.624 167.737V163.466L457.438 150.707C458.912 151.238 463.564 153.276 468.052 155.283ZM472.888 157.462C472.506 158.429 472.023 159.654 471.452 161.102L467.542 159.722L469.153 155.777C470.47 156.368 471.742 156.942 472.888 157.462ZM483.388 160.153L483.604 165.391L473.728 161.905C474.228 160.636 474.722 159.386 475.209 158.153L483.388 160.153ZM483.657 166.689L484.215 180.249L473.328 178.385C473.255 178.296 473.164 178.219 473.046 178.183C472.871 178.128 472.694 178.163 472.55 178.253L467.631 177.411C469.564 172.482 471.464 167.651 473.285 163.028L483.657 166.689ZM485.156 203.121L479.2 233.63L457.462 229.973L473.235 179.594L484.265 181.482L485.156 203.121ZM475.412 253.03L466.274 252.75C465.983 252.741 465.726 252.943 465.666 253.228L461.564 272.53C461.556 272.571 461.552 272.613 461.552 272.655C461.552 272.678 461.552 272.701 461.555 272.724L465.158 304.116L452.567 309.183L449.493 263.537L457.135 231.141L478.968 234.813L475.412 253.03ZM475.453 254.238L482.592 278.035L463.95 283.011L462.764 272.684L466.741 253.971L475.453 254.238ZM491.357 307.25L467.733 315.977L464.089 284.222L482.938 279.191L491.357 307.25ZM497.224 326.808C491.049 329.462 484.096 332.451 476.881 335.554L468.052 317.145L491.704 308.407L497.224 326.808ZM455.305 344.831L446.542 324.643L466.911 317.555L475.772 336.03C469.016 338.935 462.058 341.927 455.305 344.831ZM432.722 354.546C427.289 342.568 423.451 334.264 423.043 333.788C421.786 332.321 406.215 311.017 402.597 306.064L439.112 308.189C439.416 311.823 439.623 314.251 439.66 314.692C439.671 314.822 439.704 314.95 439.756 315.07L453.09 345.784C445.821 348.91 438.857 351.906 432.722 354.546ZM495.022 442.373L475.029 449.007C470.876 439.673 449.24 391.072 435.211 360.041C441.325 357.41 448.257 354.428 455.491 351.316L495.022 442.373ZM486.44 461.757C486.443 461.764 486.45 461.769 486.453 461.777C486.456 461.785 486.455 461.793 486.458 461.799L491.171 472.083L456.272 487.257L440.396 485.41L440.873 464.872L474.92 450.314L481.433 448.153L486.44 461.757ZM498.297 487.634L492.727 490.976C492.485 491.122 492.377 491.416 492.466 491.683L496.887 504.948L489.027 509.041C489.026 509.042 489.026 509.042 489.025 509.042L489.024 509.043L468.149 519.911C468.07 519.953 468.001 520.01 467.947 520.083L460.496 529.943C452.85 525.159 444.659 520.004 436.154 514.606L439.712 509.947C439.715 509.943 439.714 509.937 439.718 509.932C439.783 509.841 439.816 509.737 439.825 509.627C439.826 509.615 439.836 509.606 439.836 509.595L440.369 486.621L456.295 488.473C456.4 488.485 456.508 488.469 456.605 488.427L491.673 473.179L498.297 487.634ZM492.498 517.339C492.591 517.522 492.77 517.646 492.974 517.668L497.059 518.098L497.716 526.628L475.576 539.341C471.171 536.607 466.465 533.676 461.522 530.586L468.827 520.919L489.03 510.399L492.498 517.339ZM388.694 483.967L392.844 477.836L431.093 498.466L438.492 509.557L435.133 513.957C420.158 504.448 404.26 494.217 388.694 483.967ZM366.981 469.496L369.81 465.356C369.852 465.4 369.885 465.453 369.942 465.483L391.777 477.26L387.686 483.303C380.67 478.678 373.731 474.055 366.981 469.496ZM332.685 445.608C334.423 444.051 336.883 441.845 339.816 439.211L371.322 461.006L365.981 468.82C354.042 460.744 342.73 452.887 332.685 445.608ZM304.555 423.775C300.551 420.303 296.713 416.694 293.021 412.961L301.718 403.786C301.738 403.811 301.749 403.841 301.773 403.865L320.11 421.237L334.984 435.445C331.832 438.276 329.297 440.548 327.707 441.971C318.542 435.216 310.629 429.042 304.555 423.775ZM283.721 402.896L290.048 397.568L297.965 399.192C298.156 399.231 298.353 399.175 298.497 399.044L312.009 386.497C312.245 386.277 312.265 385.909 312.056 385.663L296.669 367.672L313.065 342.958C313.1 342.907 313.126 342.849 313.143 342.789L315.677 333.827L334.226 344.118C334.414 344.221 334.642 344.219 334.826 344.11L340.989 340.468L347.131 345.722L324.18 381.532L315.783 387.624L318.665 369.364L323.502 366.297C323.596 366.237 323.672 366.153 323.72 366.052L328.43 356.401C328.55 356.158 328.493 355.868 328.291 355.688L320.927 349.081C320.686 348.864 320.318 348.877 320.093 349.109L312.685 356.73L308.511 361.025C308.279 361.263 308.285 361.644 308.524 361.877C308.762 362.109 309.144 362.104 309.377 361.865L313.108 358.026L317.1 362.108C317.333 362.345 317.715 362.35 317.954 362.117C318.191 361.884 318.195 361.502 317.963 361.264L313.949 357.16L317.215 353.8L321.753 359.179C321.968 359.434 322.347 359.467 322.602 359.252C322.856 359.037 322.889 358.657 322.675 358.402L318.059 352.931L320.553 350.365L327.147 356.281L322.712 365.37L317.789 368.491C317.642 368.584 317.544 368.736 317.516 368.906L314.396 388.672L292.173 412.103C289.257 409.119 286.442 406.049 283.721 402.896ZM273.406 389.898L295.869 368.592L310.763 386.007L297.903 397.948L290.004 396.328C289.823 396.291 289.635 396.339 289.494 396.458L282.932 401.984C279.609 398.087 276.436 394.057 273.406 389.898ZM393.081 135.923L391.66 148.424C389.059 148.062 377.977 146.35 370.347 145.161C371.314 138.706 372.057 133.734 372.456 131.075C379.452 132.736 386.38 134.362 393.081 135.923ZM413.497 134.456L422.013 96.9652L428.499 100.783L425.374 114.971C425.374 114.975 425.374 114.979 425.373 114.983C425.373 114.986 425.371 114.987 425.37 114.989L421.373 136.262C418.834 135.681 416.204 135.078 413.497 134.456ZM392.193 154.413L404.851 156.772V158.357L391.869 157.261L392.193 154.413ZM389.516 167.29H367.033C368.192 159.554 369.268 152.37 370.17 146.354C384.887 148.649 389.8 149.412 391.526 149.601L389.516 167.29ZM417.174 173.334L390.284 171.214L391.733 158.46L405.404 159.614C405.572 159.629 405.739 159.571 405.863 159.458C405.987 159.343 406.057 159.182 406.057 159.013V156.271C406.057 155.98 405.85 155.731 405.565 155.678L392.329 153.212L394.262 136.198C403.655 138.384 412.57 140.435 420.565 142.263L417.174 173.334ZM431.501 159.247L420.135 157.311L421.748 142.534C426.044 143.516 430.054 144.429 433.718 145.261L431.501 159.247ZM432.69 159.45L434.897 145.529C437.595 146.142 440.09 146.708 442.35 147.221C448.776 148.678 454.109 149.888 456.265 150.397L451.633 162.678L432.69 159.45ZM445.434 227.979L460.897 177.483L464.754 178.142C458.935 192.982 451.402 212.306 445.434 227.979ZM447.873 228.36C453.385 213.909 460.457 195.711 467.181 178.558L472.036 179.388L456.263 229.772L447.873 228.36ZM402.022 304.823L405.102 274.99L436.546 275.655C437.326 286.434 438.352 299.049 439.011 306.976L402.022 304.823ZM417.057 361.292L413.013 350.97C412.891 350.66 412.542 350.507 412.232 350.629C411.994 350.722 411.848 350.95 411.848 351.191C411.848 351.264 411.861 351.338 411.89 351.41L415.949 361.77C413.442 362.851 411.62 363.638 410.686 364.045C409.166 364.705 407.667 365.608 406.16 366.714L392.213 352.899L388.569 344.017L399.802 334.889C400.046 334.692 400.098 334.341 399.92 334.081L393.646 324.913C393.598 324.842 393.536 324.782 393.462 324.738L383.929 318.951L386.642 305.136L401.038 305.974C403.056 308.739 420.734 332.946 422.114 334.555C422.565 335.19 426.249 343.176 431.618 355.022C425.8 357.526 420.791 359.683 417.057 361.292ZM437.863 437.948V437.946L421.486 397.152L425.499 394.521C425.747 394.359 425.841 394.04 425.718 393.768L414.473 368.976C417.832 367.524 424.979 364.445 434.104 360.517C445.635 386.039 462.865 424.636 473.901 449.437L447.431 460.756L437.863 437.948ZM413.265 464.585L408.149 450.103L436.973 438.945L446.323 461.229L440.041 463.915C439.824 464.008 439.681 464.219 439.676 464.456L439.206 484.734L413.265 464.585ZM334.477 406.734V406.733L374.731 365.528L382.277 376.505C382.429 376.725 382.71 376.819 382.964 376.735L401.68 370.533C398.455 373.616 395.079 377.452 391.294 381.756C386.207 387.54 380.442 394.094 373.544 400.476C362.954 410.272 346.427 425.167 335.879 434.641L321.372 420.774L334.477 406.734ZM333.178 406.357L320.499 419.943L302.602 402.989C302.579 402.966 302.549 402.956 302.521 402.938L314.987 389.788L333.178 406.357ZM366.182 372.552L349.301 389.833L341.165 381.485L357.894 365.397L366.182 372.552ZM383.014 375.447L375.655 364.742L391.628 354.017L405.193 367.454C404.757 367.799 404.318 368.157 403.878 368.535L383.014 375.447ZM385.823 419.088C385.822 419.089 385.822 419.089 385.821 419.089L373.518 427.172L364.67 416.774C369.384 412.49 373.885 408.377 377.638 404.903C384.765 398.311 390.639 391.632 395.822 385.738C402.434 378.219 408.144 371.726 413.091 369.575C413.172 369.54 413.274 369.496 413.367 369.455L424.406 393.796L385.823 419.088ZM402.592 440.752C402.587 440.744 402.579 440.74 402.574 440.732C402.568 440.724 402.567 440.715 402.561 440.707L387.017 419.747L420.457 397.827L436.515 437.829L407.636 449.007L402.592 440.752ZM383.8 439.253L374.305 428.097L386.008 420.41L393.556 430.59L383.8 439.253ZM394.278 431.562L401.258 440.974L392.01 448.9L384.582 440.172L394.278 431.562ZM406.209 252.536L406.208 252.543C406.207 252.549 406.207 252.556 406.206 252.563C406.206 252.564 406.205 252.566 406.205 252.567L400.817 304.753L386.187 303.902C386.185 303.902 386.183 303.903 386.182 303.903C386.18 303.903 386.178 303.901 386.176 303.901L353.494 302.581L350.073 283.737C350.314 281.857 354.051 252.736 354.802 248.099L406.209 252.536ZM381.509 224.745C381.514 224.747 381.52 224.745 381.527 224.746L377.895 248.882L355.009 246.906C355.456 244.156 357.083 233.451 359.185 219.52L381.509 224.745ZM384.102 207.626L381.707 223.553L359.366 218.323C359.978 214.258 360.629 209.941 361.301 205.478L384.102 207.626ZM372.306 184.84L370.626 198.158L366.97 199.657L362.242 199.214C362.977 194.325 363.726 189.335 364.469 184.38L372.306 184.84ZM388.762 184.599L390.147 172.413L417.043 174.534L415.771 186.187L388.762 184.599ZM406.381 251.34L379.099 248.986L388.605 185.798L415.618 187.386L406.381 251.34ZM435.62 255.074C435.552 255.337 435.509 255.545 435.496 255.678C435.472 255.913 435.462 256.266 435.462 256.726C435.462 259.552 435.883 266.403 436.459 274.446L405.226 273.787L407.402 252.709L407.412 252.64L435.62 255.074ZM420.581 238.144C420.45 238.238 420.361 238.38 420.336 238.539L419.094 246.239C419.089 246.272 419.087 246.304 419.087 246.336C419.087 246.627 419.298 246.883 419.593 246.93C419.923 246.984 420.232 246.76 420.285 246.431L421.429 239.333L439.722 242.508L438.441 246.695C437.306 249.834 436.448 252.31 435.959 253.893L407.585 251.444L416.826 187.457L455.879 189.753L440.079 241.346L421.034 238.041C420.876 238.013 420.713 238.05 420.581 238.144ZM372.458 183.641L364.65 183.182C365.399 178.191 366.139 173.248 366.852 168.496H374.37L372.458 183.641ZM375.586 168.496H389.379L387.557 184.528L373.665 183.712L375.586 168.496ZM367.291 200.83L371.408 199.141C371.61 199.058 371.751 198.874 371.778 198.658L373.513 184.911L387.397 185.727L384.28 206.441C384.264 206.439 384.251 206.429 384.234 206.427L361.48 204.284C361.673 203.001 361.867 201.71 362.062 200.408L367.007 200.872C367.103 200.882 367.201 200.867 367.291 200.83ZM350.787 342.252L366.635 358.191C366.869 358.427 367.252 358.428 367.487 358.193C367.723 357.958 367.724 357.576 367.49 357.341L351.453 341.212L358.38 330.404C358.395 330.38 358.399 330.352 358.411 330.326C358.426 330.292 358.443 330.259 358.452 330.223C358.461 330.187 358.462 330.152 358.465 330.114C358.467 330.075 358.47 330.038 358.466 330C358.465 329.99 358.468 329.981 358.466 329.971L353.713 303.786L385.425 305.077L382.665 319.132C382.614 319.379 382.727 319.632 382.944 319.763L392.725 325.701L398.611 334.304L387.461 343.364C387.255 343.531 387.182 343.815 387.283 344.06L390.957 353.014L374.476 364.08C374.474 364.081 374.473 364.083 374.472 364.084C374.471 364.084 374.471 364.084 374.47 364.084C374.469 364.085 374.469 364.087 374.468 364.087C374.436 364.109 374.407 364.133 374.381 364.16L367.027 371.688L358.266 364.125C358.03 363.921 357.678 363.93 357.454 364.147L339.891 381.036C339.776 381.147 339.71 381.3 339.707 381.461V381.47C339.707 381.628 339.767 381.779 339.878 381.891L348.459 390.695L334.011 405.484L315.918 389.005L324.981 382.441C325.041 382.397 325.094 382.341 325.135 382.278L350.787 342.252ZM351.594 324.487L346.336 327.459L336.413 322.069C336.178 321.942 335.889 321.983 335.701 322.171L332.019 325.815L327.867 327.276L318.277 324.632L322.929 308.18L352.494 303.824L356.978 328.532L352.281 324.552C352.088 324.389 351.814 324.362 351.594 324.487ZM340.747 339.21L334.51 342.895L316.014 332.635L317.949 325.793L327.728 328.489C327.847 328.522 327.972 328.517 328.089 328.476L332.548 326.908C332.632 326.878 332.708 326.831 332.771 326.768L336.23 323.343L346.054 328.679C346.237 328.778 346.458 328.776 346.638 328.674L351.822 325.744L357.08 330.198L347.788 344.697L341.446 339.271C341.251 339.104 340.969 339.079 340.747 339.21ZM380.573 456.906L384.192 452.805C384.412 452.556 384.388 452.175 384.138 451.954C383.888 451.734 383.508 451.757 383.288 452.007L379.942 455.799L375.745 454.253C375.467 454.15 375.155 454.265 375.01 454.524L371.956 459.978L340.734 438.387C347.232 432.549 355.762 424.865 363.776 417.587L391.484 450.143C391.588 450.264 391.736 450.341 391.896 450.353C392.056 450.366 392.214 450.314 392.336 450.21L401.931 441.985L406.837 450.011L412.187 465.153C412.225 465.262 412.295 465.358 412.385 465.428L439.171 486.235L438.675 507.657L432.013 497.673C431.96 497.591 431.885 497.523 431.799 497.477L370.514 464.422C370.497 464.412 370.477 464.413 370.46 464.405L372.656 461.191C372.662 461.183 372.662 461.174 372.668 461.165C372.672 461.158 372.68 461.153 372.684 461.145L375.811 455.562L379.912 457.074C380.146 457.16 380.408 457.093 380.573 456.906ZM465.301 305.358L466.567 316.398L446.06 323.534L442.047 314.29C442.046 314.274 442.045 314.257 442.043 314.24L452.222 310.621C452.226 310.62 452.227 310.616 452.23 310.615C452.235 310.613 452.241 310.614 452.246 310.612L465.301 305.358ZM441.937 312.998C440.317 293.934 437.55 259.396 437.896 255.919C438.037 254.562 441.895 244.055 447.435 229.509L455.945 230.941L448.298 263.348C448.284 263.407 448.28 263.467 448.283 263.527L451.388 309.638L441.937 312.998ZM462.723 171.52L467.086 160.84L471.01 162.225C469.506 166.042 467.501 171.137 465.203 176.995L461.254 176.32L462.723 171.52ZM461.402 171.717L456.242 188.566L439.188 187.564L441.76 169.473C441.814 169.141 441.578 168.838 441.249 168.792C440.919 168.744 440.613 168.974 440.567 169.304L437.981 187.492L416.976 186.258L420.005 158.512L431.906 160.54H431.907L451.418 163.865V168.182C451.418 168.446 451.59 168.68 451.843 168.758L461.402 171.717ZM336.411 116.113C321.077 112.279 306.943 108.577 295.96 105.392L339.307 109.963L336.411 116.113ZM368.79 113.03C368.971 112.604 370.076 110.543 371.245 108.362C375.357 100.689 383.309 85.8452 388.125 73.9542L398.619 77.8092L393.524 89.7722C393.448 89.9492 393.462 90.1522 393.561 90.3162L396.01 94.4382L386.678 128.234C379.926 126.651 373.014 125.017 366.096 123.361C367.135 119.007 368.376 114.064 368.79 113.03ZM362.258 113.859C361.593 116.309 360.804 119.548 360.232 121.953C352.569 120.106 344.957 118.245 337.604 116.411L340.564 110.126L362.258 113.859ZM266.212 379.359C266.131 379.076 266.021 378.798 265.852 378.538C265.703 378.308 265.52 378.117 265.326 377.943C261.612 372.016 258.153 365.851 254.956 359.428C254.874 359.17 254.751 358.922 254.593 358.686C245.153 339.547 237.964 318.195 232.936 294.426C223.724 250.877 229.103 209.732 248.925 172.129C270.803 130.624 279.838 113.322 282.786 107.654C299.06 113.034 330.228 120.947 361.718 128.511C361.744 128.518 361.767 128.53 361.794 128.536C361.812 128.54 361.831 128.539 361.849 128.543C364.994 129.299 368.141 130.05 371.278 130.795C369.032 145.811 354.154 245.245 353.714 247.326C353.231 249.606 349.043 282.287 348.865 283.676C348.857 283.738 348.859 283.8 348.869 283.861L352.28 302.647L322.368 307.044C322.133 307.078 321.94 307.248 321.875 307.476L316.951 324.89L316.95 324.892V324.895L312.009 342.37L295.45 367.328L272.694 388.911C270.455 385.799 268.291 382.619 266.212 379.359ZM153.256 209.522L163.862 212.754L173.864 223.222C173.997 223.362 174.191 223.43 174.383 223.403L186.571 221.708L186.227 231.091L177.656 232.043L150.566 216.502L153.256 209.522ZM121.837 180.025L156.782 195.879L154.632 202.601L149.487 215.946L112.256 198.611L121.837 180.025ZM101.809 179.987L117.765 185.3L111.126 198.178L95.6334 194.055L101.809 179.987ZM104.118 151.348L111.822 154.174L94.4544 193.742L86.9394 191.742C92.6974 178.262 98.8184 163.889 104.118 151.348ZM85.6724 179.339C80.4014 191.701 75.1904 203.878 70.9054 213.878L61.9324 212.784L75.3074 176.949L85.6724 179.339ZM109.28 123.372C106.778 129.479 103.09 138.279 98.8404 148.338L94.2284 146.29C93.9244 146.154 93.5674 146.292 93.4324 146.596C93.3974 146.675 93.3814 146.759 93.3814 146.841C93.3814 147.071 93.5144 147.293 93.7394 147.392L98.3704 149.449C96.2334 154.506 93.9644 159.855 91.6394 165.323L79.7644 160.706L83.2624 153.184C83.3314 153.036 83.3374 152.867 83.2794 152.715C83.2204 152.563 83.1044 152.441 82.9544 152.376L68.0824 145.956L85.0184 110.567L109.28 123.372ZM82.0724 82.9982L108.44 94.8102L100.322 117.28L70.2074 101.384L82.0724 82.9982ZM114.272 78.6702L108.851 93.6722L82.0934 81.6862C81.8214 81.5642 81.5014 81.6592 81.3394 81.9092L69.1364 100.819L55.7834 93.7712C66.8434 81.2702 77.9174 69.6432 80.8174 68.1512C83.9294 68.2492 98.7064 73.0682 114.272 78.6702ZM116.9 20.8512L114.646 48.1172L104.168 46.7542L102.875 30.1992L100.618 9.42724C105.443 9.89624 110.122 10.2662 114.633 10.5802L116.9 20.8512ZM202.42 48.9562L205.477 57.0232L172.303 55.4872C171.99 55.4722 171.719 55.6992 171.677 56.0092L170.585 64.2362L133.486 60.2802C134.645 54.5872 135.375 49.9212 135.375 47.2292C135.375 46.5102 135.346 45.7112 135.292 44.8412H198.244C199.625 46.1972 201.02 47.5712 202.42 48.9562ZM243.059 81.4772C243.01 81.4252 242.947 81.3612 242.889 81.3012L242.206 55.4932C242.198 55.2052 241.988 54.9632 241.704 54.9152L211.908 49.8632C210.233 48.1942 208.542 46.5152 206.849 44.8412H251.07L252.08 85.9872L243.059 81.4772ZM231.48 99.2362L219.256 89.3452L229.787 76.4912C233.178 79.9542 236.181 83.0412 238.627 85.5682L231.48 99.2362ZM235.753 103.132L232.421 100.039L239.542 86.4212C239.658 86.5012 239.776 86.5772 239.902 86.6402L240.891 87.1352L235.753 103.132ZM230.86 122.284L241.983 87.6812L251.196 92.2872L238.992 125.899L230.86 122.284ZM219.869 142.297L204.68 135.82L211.25 120.17L227.558 127.417L219.869 142.297ZM217.905 158.683C217.865 158.741 217.837 158.805 217.82 158.872L213.764 175.109C213.753 175.157 213.746 175.206 213.746 175.255C213.746 175.285 213.749 175.315 213.753 175.344L214.622 181.143C214.653 181.347 214.785 181.521 214.973 181.605L220.486 184.066C220.101 185.07 219.447 187.37 218.279 192.743L211.586 191.195C211.261 191.12 210.937 191.321 210.863 191.646C210.852 191.692 210.847 191.738 210.847 191.783C210.847 192.057 211.035 192.305 211.314 192.369L218.025 193.923C217.345 197.103 216.506 201.247 215.467 206.636L207.608 205.108C207.59 205.104 207.57 205.107 207.551 205.105C207.539 205.104 207.529 205.097 207.517 205.097C207.505 205.096 207.494 205.102 207.482 205.102C207.462 205.103 207.443 205.098 207.424 205.1L188.636 207.281L211.025 153.72L214.805 152.64C214.95 152.598 215.074 152.504 215.154 152.375L220.662 143.387C220.666 143.381 220.666 143.373 220.67 143.366C220.674 143.36 220.68 143.356 220.684 143.349L228.656 127.904L236.251 131.28L217.905 158.683ZM221.157 183.044L215.766 180.638L214.964 175.285L218.965 159.267L237.369 131.777L245.93 135.581C236.574 154.064 223.213 180.071 221.157 183.044ZM241.454 147.045C243.895 142.26 245.926 138.257 247.034 136.071L258.428 141.135C256.467 144.867 254.325 148.936 251.995 153.36L241.454 147.045ZM222.225 183.521C223.541 181.639 226.62 175.915 235.178 159.295C237.151 155.464 239.122 151.614 240.905 148.121L251.432 154.429C249.021 159.009 246.415 163.955 243.589 169.316C240.175 175.793 237.185 182.372 234.6 189.045L222.225 183.521ZM216.65 206.866C218.182 198.94 220.663 186.898 221.537 184.535L234.168 190.173C231.802 196.403 229.797 202.714 228.153 209.104L216.65 206.866ZM212.97 236.868L213.791 222.841C213.805 222.674 213.742 222.512 213.628 222.392C213.514 222.271 213.355 222.203 213.189 222.203H207.438L208.068 206.425L215.829 207.935C215.829 207.935 215.829 207.936 215.83 207.936H215.832L227.849 210.273C225.622 219.177 224.097 228.232 223.27 237.425L212.97 236.868ZM177.361 209.758C177.437 209.78 177.517 209.787 177.596 209.778L187.047 208.68L186.615 220.484L174.522 222.166L164.625 211.806C164.554 211.732 164.464 211.676 164.365 211.646L153.691 208.394L155.565 203.531L177.361 209.758ZM158.283 171.215L185.072 181.041C185.375 181.152 185.711 181.005 185.836 180.708L204.213 136.932L219.269 143.352L214.248 151.544L210.414 152.64C210.238 152.69 210.094 152.818 210.024 152.987L187.262 207.441L177.576 208.566L165 204.972L169.097 194.871C169.221 194.564 169.074 194.211 168.765 194.086C168.456 193.961 168.105 194.11 167.979 194.418L163.834 204.639L155.965 202.391L158.095 195.736C158.187 195.444 158.048 195.129 157.77 195.003L148.746 190.909L158.283 171.215ZM131.452 161.374L157.145 170.797L147.647 190.41L122.39 178.952L131.452 161.374ZM121.247 157.631L130.316 160.957L118.325 184.215L110.864 181.731L121.247 157.631ZM120.114 157.216L109.717 181.349L102.296 178.878L112.957 154.59L120.114 157.216ZM124.843 127.509L131.731 130.249L120.592 156.106L113.442 153.484L124.843 127.509ZM117.371 119.414L125.59 122.64L125.074 123.984L112.308 153.068L104.587 150.236C110.52 136.19 115.35 124.604 117.371 119.414ZM117.537 98.8842C115.49 106.029 113.631 112.063 112.414 115.471C111.977 116.695 111.046 119.043 109.738 122.25L101.399 117.848L109.544 95.3042L117.537 98.8842ZM122.26 81.5882C120.818 87.1272 119.306 92.6652 117.87 97.7132L109.955 94.1672L115.406 79.0792C117.691 79.9042 119.986 80.7452 122.26 81.5882ZM205.943 58.2522L212.395 75.2752L206.64 76.9672C206.62 76.9732 206.605 76.9902 206.585 76.9982C206.554 77.0102 206.522 77.0142 206.492 77.0322L201.617 80.0552L197.604 72.0552C197.531 71.9112 197.405 71.8022 197.251 71.7522C197.098 71.7022 196.931 71.7162 196.787 71.7902L188.165 76.2562L183.395 72.7082C183.218 72.5762 182.981 72.5522 182.781 72.6452L179.328 74.2542L171.123 69.3462L172.801 56.7172L205.943 58.2522ZM206.609 78.3802L212.803 88.6602L206.851 92.4602L196.088 83.7982L201.609 81.4722C201.623 81.4662 201.632 81.4532 201.646 81.4462C201.661 81.4392 201.678 81.4382 201.693 81.4292L206.609 78.3802ZM207.509 111.908L177.794 98.7032L183.598 83.5602C183.659 83.4012 183.651 83.2243 183.573 83.0723C183.497 82.9213 183.36 82.8082 183.196 82.7632L158.601 75.9502L160.675 64.3923L170.426 65.4312L169.252 74.2762C169.248 74.3032 169.246 74.3302 169.246 74.3562C169.246 74.6542 169.467 74.9132 169.77 74.9542C170.1 74.9972 170.404 74.7652 170.447 74.4352L170.95 70.6492L178.984 75.4532C179.155 75.5562 179.367 75.5672 179.548 75.4832L182.964 73.8902L187.748 77.4492C187.933 77.5872 188.18 77.6072 188.386 77.5012L196.8 73.1423L200.547 80.6112L194.689 83.0782C194.493 83.1602 194.355 83.3402 194.325 83.5502C194.297 83.7572 194.379 83.9702 194.545 84.1042L206.432 93.6722C206.634 93.8342 206.917 93.8492 207.135 93.7102L213.947 89.3612C214.222 89.1862 214.307 88.8222 214.139 88.5412L207.73 77.9032L212.823 76.4052L217.752 89.4112L207.509 111.908ZM208.611 112.398L218.632 90.3912L231.28 100.625L235.346 104.399L229.758 121.795L208.611 112.398ZM157.664 115.768L164.216 99.2692L210.148 119.68L203.571 135.346L157.664 115.768ZM143.162 138.657L145.077 134.945C145.081 134.934 145.09 134.928 145.094 134.917C145.096 134.914 145.095 134.91 145.096 134.906L147.281 130.668L157.139 117.04C157.168 117 157.192 116.956 157.211 116.909L157.218 116.89L203.104 136.459L193.121 160.239L143.162 138.657ZM168.18 150.778L192.654 161.351L184.947 179.71L158.811 170.124L168.18 150.778ZM142.609 139.732L167.071 150.299L157.673 169.707L132.009 160.294L142.609 139.732ZM143.694 135.009L130.873 159.877L121.725 156.522L132.851 130.695L143.694 135.009ZM145.95 130.632L144.249 133.932L125.329 126.404L126.19 124.442L126.712 123.08L145.95 130.632ZM133.037 106.577L156.103 116.414L146.584 129.585L127.144 121.954L133.037 106.577ZM131.927 106.104L126.021 121.513L117.803 118.287C117.913 117.995 118.014 117.724 118.094 117.5C119.154 114.531 120.874 108.977 122.825 102.222L131.927 106.104ZM132.359 104.977L123.163 101.055C124.677 95.7792 126.312 89.8382 127.879 83.8442L138.697 88.4362L132.359 104.977ZM144.241 101.228L136.632 97.1962L139.808 88.9082L148.076 92.4172L144.241 101.228ZM141.005 108.664L133.468 105.45L136.197 98.3312L143.758 102.337L141.005 108.664ZM149.187 92.8882L163.106 98.7962L156.554 115.295L142.114 109.137L149.187 92.8882ZM223.392 61.3942L241.169 61.8912L241.649 80.0212C238.514 76.7922 231.68 69.7712 223.392 61.3942ZM213.385 51.3372L241.014 56.0212L241.137 60.6832L222.163 60.1532C219.358 57.3202 216.404 54.3522 213.385 51.3372ZM228.939 75.6242L218.599 88.2442L206.943 57.4882C206.936 57.4642 206.927 57.4422 206.917 57.4192L204.484 51.0002C213.1 59.5462 221.795 68.3342 228.939 75.6242ZM123.761 75.7113C121.512 74.8763 119.099 73.9903 116.606 73.0863L120.662 50.1162L128.999 51.2002C128.22 56.8982 126.192 66.0063 123.761 75.7113ZM133.243 61.4672L159.472 64.2632L157.318 76.2782C157.311 76.3152 157.308 76.3502 157.308 76.3862C157.308 76.6522 157.485 76.8932 157.75 76.9662L182.234 83.7482L176.69 98.2132L166.497 93.6832L129.396 77.9372C130.862 72.1172 132.205 66.4372 133.243 61.4672ZM201.572 253.591L195.58 249.001C195.503 248.943 195.414 248.904 195.32 248.887L184.608 246.964L185.86 240.116C185.86 240.116 185.861 240.115 185.861 240.114C185.862 240.111 185.861 240.109 185.862 240.107L187.378 231.813C187.38 231.809 187.38 231.804 187.381 231.799L187.407 231.657L188.259 208.54L206.863 206.379L206.208 222.781C206.207 222.789 206.207 222.798 206.207 222.806C206.207 222.961 206.267 223.111 206.376 223.224C206.489 223.342 206.646 223.409 206.81 223.409H212.55L211.766 236.802L204.524 236.41C204.211 236.393 203.937 236.619 203.894 236.93L201.572 253.591ZM214.689 265.551L217.227 238.306L223.164 238.628C222.424 247.515 222.34 256.53 222.908 265.664L214.689 265.551ZM178.597 247.449L175.947 263.948C175.087 263.55 174.179 263.172 173.208 262.78C171.929 262.264 170.606 261.732 169.097 261.028C168.286 260.649 166.951 260.191 165.18 259.666L171.463 246.631L178.597 247.449ZM176.205 236.793L177.925 233.226L186.065 232.324L184.805 239.194L176.205 236.793ZM184.587 240.385L183.413 246.788L172.018 245.481L175.673 237.898L184.587 240.385ZM180.291 266.542C179.272 265.739 178.214 265.088 177.08 264.504L179.798 247.587L183.819 248.048L194.962 250.048L201.388 254.97L200.186 265.353L182.754 265.114C182.637 265.113 182.524 265.145 182.426 265.206L180.291 266.542ZM212.906 271.68L210.262 273.323C210.085 273.433 209.977 273.627 209.977 273.836V282.824C209.977 282.846 209.978 282.868 209.98 282.891C209.981 282.902 209.988 282.91 209.99 282.921C209.993 282.941 209.993 282.962 209.998 282.982L220.619 322.021L218.691 323.477C209.965 315.672 202.608 309.334 200.423 307.459C190.929 281.47 186.407 272.032 181.26 267.358L182.915 266.323L213.367 266.74L212.906 271.68ZM211.183 282.15V274.171L213.797 272.546C213.958 272.447 214.062 272.278 214.08 272.09L214.577 266.757L222.983 266.871C223.296 271.444 223.78 276.048 224.42 280.678L211.183 282.15ZM233.31 320.477C235.836 328.975 238.674 337.142 241.841 344.978C235.003 338.272 226.886 330.822 219.607 324.297L221.561 322.82L233.31 320.477ZM221.741 321.554L211.346 283.346L224.587 281.874C225.247 286.448 226.057 291.048 227.036 295.674C228.761 303.831 230.745 311.703 232.972 319.315L221.741 321.554ZM212.765 238.065L216.021 238.241L213.479 265.535L201.398 265.37L202.624 254.777L205.012 237.645L211.829 238.014C211.932 238.16 212.092 238.264 212.284 238.275C212.477 238.286 212.647 238.199 212.765 238.065ZM129.343 47.2292C129.343 47.9702 129.271 48.9162 129.147 50.0042L115.843 48.2732L118.11 20.8602C118.114 20.8012 118.111 20.7392 118.097 20.6802L115.887 10.6662C118.476 10.8422 121.002 11.0012 123.464 11.1482C126.535 25.4852 129.343 40.4472 129.343 47.2292ZM133.443 30.7232C132.427 24.7652 131.107 18.0962 129.714 11.5132C147.391 12.5312 161.346 13.3652 167.954 17.2812C170.307 18.6762 175.195 22.9072 181.405 28.6782L133.443 30.7232ZM141.979 43.6352H135.205C134.942 40.4162 134.387 36.3932 133.645 31.9222L139.758 31.6612L141.979 43.6352ZM140.975 31.6092L182.646 29.8332C186.978 33.8852 191.892 38.6212 197.013 43.6352H143.206L140.975 31.6092ZM79.6694 62.2022C79.4734 62.2372 79.2504 62.3152 79.0134 62.4112L81.3364 45.0002L119.465 49.9602L115.454 72.6692C100.629 67.3182 83.3514 61.5332 79.6694 62.2022ZM61.6424 172.656L55.1454 174.916L43.8324 172.003L49.4904 152.374L78.7424 161.602L91.1674 166.434C89.5114 170.329 87.8314 174.276 86.1534 178.211L61.9754 172.638C61.8644 172.612 61.7494 172.619 61.6424 172.656ZM149.925 234.994C150.091 234.704 149.992 234.337 149.703 234.171L144.834 231.37L150.127 217.639L176.739 232.907L175.025 236.464L163.481 233.243C163.16 233.153 162.828 233.341 162.738 233.662C162.723 233.716 162.716 233.771 162.716 233.824C162.716 234.088 162.891 234.33 163.157 234.405L174.492 237.568L164.004 259.326C158.135 257.669 148.37 255.425 136.534 252.903L144.395 232.508L149.101 235.216C149.39 235.382 149.759 235.283 149.925 234.994ZM224.585 401.832C224.144 402.12 223.801 402.508 223.567 402.95L213.621 400.037L193.987 357.953C193.976 357.929 193.954 357.913 193.94 357.89C193.915 357.852 193.891 357.815 193.86 357.784C193.851 357.775 193.847 357.762 193.838 357.754L169.066 336.123C166.818 328.612 159.664 304.989 158.281 303.915C156.915 302.854 139.188 303.463 131.451 303.783L95.0014 285.956C94.9184 285.915 94.8284 285.894 94.7364 285.894H74.0884L68.4414 283.603L86.3114 248.938C124.286 256.309 160.894 263.854 166.547 266.492C168.202 267.265 169.664 267.854 170.954 268.374C178.881 271.568 181.273 272.532 195.028 310.268C195.205 310.756 195.507 311.19 195.902 311.528C196.325 311.889 237.995 347.557 249.401 361.812C252.405 367.871 255.628 373.719 259.08 379.351L224.585 401.832ZM223.216 404.359C223.216 404.702 223.274 405.049 223.396 405.386C223.469 405.588 224.748 409.116 226.857 414.923L190.058 430.181L170.953 388.798L223.246 404.113C223.239 404.196 223.216 404.276 223.216 404.359ZM251.495 482.491L219.304 493.532L190.565 431.278L227.269 416.057C232.468 430.373 242.133 456.949 251.495 482.491ZM254.794 438.015C258.055 442.003 269.018 457.708 269.129 457.866C269.173 457.929 269.229 457.983 269.294 458.025L287.954 470.208L257.203 480.541C248.955 458.039 240.46 434.701 234.991 419.653C241.76 425.632 252.587 435.318 254.794 438.015ZM304.003 515.781L273.999 525.998C269.575 514.191 263.68 498.208 257.618 481.674L288.947 471.146L304.003 515.781ZM339.333 503.751L305.144 515.391L290.454 471.841L339.333 503.751ZM303.996 635.71L297.168 622.903L303.592 619.6C305.756 625.254 307.952 630.993 310.147 636.734L303.996 635.71ZM310.646 638.04C314.147 647.194 317.638 656.333 320.992 665.111C314.019 664.036 297.771 661.529 280.827 658.891L271.033 631.444L310.646 638.04ZM278.924 623.788L292.573 625.157C292.689 625.168 292.805 625.146 292.909 625.092L296.096 623.454L302.496 635.46L279.178 631.578L278.924 623.788ZM267.907 622.683L277.713 623.667L277.965 631.375L270.569 630.144L267.907 622.683ZM255.009 609.341L258.925 601.095L269.208 629.918L261.185 628.582L255.009 609.341ZM236.855 606.808L253.898 609.829L259.846 628.358L234.786 624.185L236.855 606.808ZM192.577 610.979L199.676 604.635L213.097 606.706C213.378 606.749 213.652 606.59 213.753 606.325L220.711 588.112C220.724 588.08 220.721 588.048 220.728 588.015L237.253 593.257L233.594 623.987L207.959 619.718L192.577 610.979ZM142.546 578.68C142.546 578.679 142.546 578.678 142.546 578.677C142.545 578.676 142.545 578.676 142.545 578.676L139.894 571.412V571.411L136.929 563.287L174.656 573.402L206.804 583.599L203.935 599.212L191.393 610.421L149.984 599.064L142.546 578.68ZM127.207 585.886L141.644 579.717L148.561 598.674L132.654 594.311C130.995 591.705 129.153 588.859 127.207 585.886ZM116.308 584.143L121.001 580.89C124.02 585.445 126.889 589.818 129.384 593.68L114.737 591.507L116.308 584.143ZM57.4654 549.62L72.6854 551.211L71.9664 560.251C71.9584 560.42 72.0124 560.589 72.1294 560.712L75.1694 563.932L72.0584 585.176L53.0194 582.352L57.4654 549.62ZM54.1784 564.86L51.8264 582.174L50.4034 581.964L49.1714 581.781H49.1704L25.4404 578.26L26.7104 562.403L54.1784 564.86ZM56.2654 549.494L54.3414 563.664L26.8064 561.201L27.9804 546.537L56.2654 549.494ZM36.7114 526.174C36.8324 526.344 37.0324 526.453 37.2554 526.43C37.4324 526.413 37.5784 526.318 37.6754 526.185L58.6004 526.425L56.4074 548.3L28.0764 545.337L29.6164 526.093L36.7114 526.174ZM85.8544 509.358L99.2864 535.345L102.934 553.169L57.6064 548.425L61.2744 511.848L85.8544 509.358ZM69.8164 478.327L85.2594 508.206L61.2654 510.636L58.9244 486.285L69.8164 478.327ZM32.8144 455.353L17.1164 458.248L14.0674 441.994L27.4624 437.392L32.8144 455.353ZM40.0064 454.028L34.0074 455.133L28.6034 437.001L34.6144 434.936L40.0064 454.028ZM73.5584 421.558L93.8474 465.217L71.2174 476.085L42.4154 453.682L36.8994 434.151L73.5584 421.558ZM73.0474 420.459L36.5704 432.989L26.7924 398.37L57.9444 387.959L73.0474 420.459ZM107.298 408.694L74.1944 420.065L59.0944 387.574L93.1624 376.188C97.4244 386.002 102.258 397.115 107.298 408.694ZM103.745 372.651L108.589 384.794L99.4694 387.672C97.6784 383.553 95.9534 379.584 94.3124 375.804L103.745 372.651ZM107.008 329.372L111.566 339.993L103.993 343.751C103.781 343.857 103.658 344.07 103.658 344.292C103.658 344.382 103.678 344.473 103.721 344.56C103.869 344.858 104.231 344.98 104.53 344.832L112.042 341.103L122.366 365.156L93.8294 374.693C85.1114 354.616 78.9044 340.249 78.4924 339.098C78.4264 338.911 78.2814 338.653 78.1014 338.366L107.008 329.372ZM96.0874 319.369L106.153 328.375L77.3854 337.325C76.5004 336.14 75.1504 334.544 73.4974 332.689L96.0874 319.369ZM86.1314 310.462L95.1444 318.526L72.6774 331.772C71.7874 330.785 70.8194 329.733 69.8034 328.642L86.1314 310.462ZM85.2324 309.658L68.9774 327.757C66.2454 324.841 63.1964 321.674 60.1964 318.6L75.4324 300.891L85.2324 309.658ZM130.866 304.839L136.729 317.538L123.867 325.226C123.588 325.392 123.491 325.751 123.65 326.036L127.113 332.277L112.648 339.456L107.902 328.397C107.892 328.373 107.871 328.358 107.858 328.336C107.832 328.292 107.807 328.251 107.772 328.216C107.763 328.207 107.759 328.194 107.75 328.185L66.8334 291.579L67.8494 284.751L67.8864 284.679L73.7434 287.056C73.8154 287.085 73.8924 287.1 73.9704 287.1H94.5964L130.866 304.839ZM161.471 368.257L132.249 304.957C141.737 304.58 156.289 304.247 157.509 304.839C158.551 306.027 164.472 324.973 167.96 336.636C167.993 336.745 168.056 336.842 168.141 336.918L192.251 357.97L161.471 368.257ZM170.282 387.343L161.98 369.36L193.122 358.951L212.079 399.586L170.282 387.343ZM183.976 505.649L138.336 399.308L169.531 388.592L189.197 431.189C189.197 431.19 189.197 431.191 189.197 431.192C189.197 431.194 189.199 431.195 189.2 431.196L218.159 493.924L183.976 505.649ZM237.537 516.88L231.019 519.303L230.398 517.563L219.812 494.632L227.825 491.884L237.537 516.88ZM250.077 512.218L238.668 516.46L228.967 491.493L240.555 487.518L250.077 512.218ZM251.207 511.799L241.697 487.127L251.911 483.624C255.023 492.112 258.092 500.457 260.944 508.178L251.207 511.799ZM268.288 527.942L258.688 531.211L251.64 512.924L261.362 509.31C263.895 516.164 266.244 522.486 268.288 527.942ZM280.343 542.576C279.126 539.565 277.052 534.138 274.422 527.128L304.388 516.924L313.784 544.778L284.78 553.871C282.742 548.625 281.206 544.711 280.343 542.576ZM269.506 559.274L259.123 532.337L268.711 529.072C271.396 536.23 273.512 541.771 274.752 544.837C275.597 546.929 277.09 550.731 279.075 555.84L269.506 559.274ZM278.935 583.738L269.939 560.399L279.511 556.965C281.895 563.106 284.929 570.97 288.387 579.961L278.935 583.738ZM282.511 593.016L279.369 584.862L288.82 581.087C289.903 583.903 291.025 586.823 292.18 589.832L282.511 593.016ZM285.716 601.329L282.946 594.143L292.613 590.959C294.027 594.641 295.486 598.445 296.981 602.345L285.716 601.329ZM276.996 601.753L277.673 622.45L267.459 621.425L259.887 600.209L276.996 601.753ZM258.163 599.889L254.013 608.625L236.997 605.608L238.424 593.629L258.163 599.889ZM234.237 573.214L247.302 568.524L258.027 598.581L238.544 592.401C238.541 592.383 238.545 592.366 238.541 592.349L234.237 573.214ZM167.767 551.067L177.475 548.048C177.793 547.948 177.971 547.61 177.872 547.293C177.773 546.974 177.435 546.797 177.117 546.895L167.364 549.929L155.582 516.663L183.309 507.153L202.455 551.764L204.492 566.215V566.216L206.762 582.32L175.302 572.341L167.767 551.067ZM149.985 547.317C149.944 547.163 149.843 547.03 149.704 546.95C149.566 546.87 149.401 546.847 149.246 546.888L132.719 551.308C132.669 551.322 132.626 551.347 132.582 551.372L123.885 527.534L154.442 517.053L166.413 550.856C166.413 550.857 166.414 550.857 166.414 550.857L173.883 571.947L155.177 566.933L149.985 547.317ZM136.427 561.908L132.986 552.477C133.001 552.474 133.016 552.478 133.031 552.474L148.974 548.211L153.834 566.574L136.427 561.908ZM122.746 527.924L135.007 561.528L105.591 553.643C105.546 553.578 105.496 553.506 105.452 553.44L101.707 535.141L122.746 527.924ZM112.548 505.457L121.857 525.489L122.332 526.792L101.307 534.003L91.7914 515.591L112.548 505.457ZM112.039 504.363L91.2374 514.518L71.8904 477.089L94.3544 466.307L112.039 504.363ZM213.673 549.311L217.642 563.851L205.604 565.459L203.713 552.041L213.673 549.311ZM203.389 550.88L199.685 542.251L210.619 538.127L213.355 548.148L203.389 550.88ZM215.751 514.207C215.501 514.291 215.341 514.524 215.341 514.777C215.341 514.826 215.346 514.875 215.359 514.924L217.816 524.764L219.557 533.166C219.578 533.264 219.626 533.346 219.684 533.419L199.209 541.141L184.453 506.76L218.667 495.025L225.932 510.763L215.751 514.207ZM218.827 523.836L216.664 515.171L226.424 511.869C226.43 511.867 226.433 511.862 226.439 511.86L229.282 518.019L229.89 519.722L218.827 523.836ZM232.987 528.401L220.739 533.02C220.738 532.987 220.745 532.956 220.739 532.922L219.101 525.02L230.296 520.859L232.987 528.401ZM244.926 535.896L237.805 538.321L231.424 520.439L237.974 518.005L244.926 535.896ZM246.069 535.507L239.104 517.585L250.51 513.344L257.548 531.598L246.069 535.507ZM257.042 563.748L254.51 557.232V557.228C254.509 557.227 254.508 557.227 254.508 557.226L246.506 536.633L257.982 532.725L268.373 559.68L257.042 563.748ZM266.452 587.968L257.478 564.872L268.806 560.806L277.805 584.151L266.452 587.968ZM266.889 589.093L278.24 585.277L281.581 593.943C281.582 593.948 281.581 593.953 281.583 593.958C281.585 593.964 281.59 593.968 281.593 593.974L284.381 601.208L271.132 600.012L266.889 589.093ZM265.746 589.478L269.792 599.891L259.441 598.958L257.096 592.386L265.746 589.478ZM256.343 565.279L265.308 588.353L256.691 591.251L248.437 568.117L256.343 565.279ZM245.558 560.05L238.21 539.458L245.363 537.022L253.166 557.102L245.558 560.05ZM253.602 558.227L255.906 564.155L248.031 566.981L245.964 561.187L253.602 558.227ZM137.192 399.701L157.787 447.688L152.661 449.844C152.43 449.941 152.292 450.166 152.292 450.4C152.292 450.478 152.307 450.558 152.339 450.634C152.468 450.941 152.822 451.086 153.129 450.956L158.263 448.797L182.832 506.042L155.179 515.526L155.114 515.342C154.684 514.357 130.128 458.109 108.927 409.41L137.192 399.701ZM136.715 398.59L108.444 408.3C105.521 401.587 102.667 395.025 99.9534 388.784L109.572 385.749C109.732 385.698 109.863 385.584 109.934 385.432C110.006 385.281 110.012 385.106 109.95 384.95L104.892 372.268L122.843 366.268L136.715 398.59ZM123.513 364.772L113.125 340.566L128.215 333.077C128.362 333.004 128.473 332.873 128.522 332.716C128.571 332.557 128.554 332.387 128.474 332.244L124.988 325.962L137.237 318.64L153.853 354.632L123.513 364.772ZM154.362 355.735L169.023 387.492L137.859 398.196L123.991 365.884L154.362 355.735ZM94.9344 464.696L89.8034 453.656L101.145 449.715L105.406 459.667L94.9344 464.696ZM112.449 457.623C112.75 457.478 112.877 457.118 112.732 456.818C112.588 456.517 112.228 456.391 111.927 456.536L106.494 459.144L102.032 448.723C101.908 448.432 101.579 448.287 101.28 448.39L89.2924 452.556L74.7054 421.165L107.781 409.803C128.423 457.219 152.265 511.83 153.993 515.785L154.039 515.917L123.471 526.401L122.97 525.028L113.376 504.382C113.376 504.382 113.376 504.381 113.375 504.381L95.4404 465.786L112.449 457.623ZM128.788 574.089L120.625 561.422C120.46 561.166 120.132 561.073 119.858 561.204L112.959 564.506C110.635 561.062 108.471 557.874 106.625 555.162L135.51 562.906L138.532 571.188L128.788 574.089ZM120.334 579.884L115.868 582.981L106.445 572.211L111.67 566.924C114.538 571.186 117.489 575.597 120.334 579.884ZM113.641 565.516L119.899 562.521L128.019 575.122C128.165 575.347 128.442 575.45 128.698 575.374L138.946 572.323L141.23 578.583L126.536 584.862C122.354 578.49 117.777 571.647 113.641 565.516ZM219.585 587.681L212.8 605.439L200.841 603.594L204.893 599.973C204.992 599.884 205.06 599.764 205.084 599.632L207.963 583.966L219.6 587.658C219.596 587.667 219.588 587.673 219.585 587.681ZM208.037 582.725L205.772 566.653L218.485 564.956C218.658 564.932 218.811 564.836 218.908 564.69C219.004 564.546 219.034 564.366 218.987 564.199L211.753 537.699L233.392 529.537L244.637 561.054C244.637 561.055 244.638 561.055 244.638 561.055L246.897 567.388L233.328 572.258C233.041 572.361 232.877 572.663 232.943 572.958L237.222 591.982L208.037 582.725ZM286.34 602.595L297.463 603.599C299.318 608.44 301.224 613.417 303.157 618.466L296.6 621.839L286.34 602.595ZM295.529 622.389L292.516 623.938L278.885 622.571L278.207 601.862L284.908 602.466L295.529 622.389ZM44.5774 469.155C44.5514 468.996 44.4614 468.855 44.3294 468.762C44.1974 468.67 44.0334 468.634 43.8754 468.663L19.9804 473.012C19.9484 473.018 19.9224 473.035 19.8924 473.046L17.3394 459.432L40.4604 455.171C40.5114 455.23 40.5584 455.295 40.6214 455.343L69.0164 477.428L58.0534 485.426L47.6204 487.047L44.5774 469.155ZM33.0294 490.532L35.3204 513.249C31.9424 513.705 28.9814 514.11 27.6294 514.295L23.4504 492.018L33.0294 490.532ZM23.2284 490.833L20.1084 474.198C20.1384 474.197 20.1664 474.205 20.1974 474.199L43.4904 469.959L46.4284 487.231L23.2284 490.833ZM96.2744 588.769L80.3124 586.401L82.5994 576.347L98.1844 578.774L96.2744 588.769ZM99.4864 578.387C99.5194 578.225 99.4824 578.06 99.3874 577.927C99.2934 577.794 99.1494 577.704 98.9874 577.678L82.2284 575.069C81.9154 575.02 81.6184 575.222 81.5484 575.532L79.1164 586.223L73.2524 585.353L76.4054 563.819C76.4274 563.639 76.3734 563.452 76.2474 563.317L73.1904 560.079L73.8854 551.337L103.24 554.405C103.269 554.469 103.282 554.541 103.322 554.598C105.674 558.047 108.283 561.897 110.983 565.904L105.192 571.761C105.076 571.879 105.018 572.032 105.018 572.185C105.018 572.327 105.068 572.469 105.167 572.583L115.116 583.953L113.542 591.331L97.4684 588.946L99.4864 578.387ZM189.708 621.785L189.046 627.527L159.082 624.001L156.422 616.711L189.708 621.785ZM155.951 615.419L150.489 600.451L190.892 611.534L189.847 620.586L155.951 615.419ZM371.746 600.924L337.213 611.248C337.054 611.295 336.923 611.404 336.848 611.55C336.803 611.637 336.782 611.731 336.782 611.826C336.782 611.892 336.794 611.96 336.815 612.023L342.504 628.376L316.512 636.496C304.386 604.783 292.129 572.805 285.218 554.998L314.733 545.744C314.888 545.695 315.016 545.587 315.09 545.443C315.164 545.298 315.176 545.129 315.124 544.976L305.531 516.535L340.316 504.69L371.746 600.924ZM409.264 546.427L441.502 565.048L401.693 587.641L391.564 586.919C391.484 586.912 391.403 586.923 391.327 586.949L370.732 593.937L341.78 505.288L409.264 546.427ZM493.768 604.646C488.268 612.906 482.712 621.151 478.252 627.599L447.576 590.45C447.573 590.447 447.57 590.446 447.568 590.444C447.566 590.441 447.566 590.439 447.564 590.436L431.748 572.428C431.628 572.292 431.461 572.228 431.293 572.229L442.662 565.776L493.768 604.646ZM469.28 639.787C468.792 640.167 466.927 641.491 464.15 643.437L458.576 637.811C458.687 637.784 458.794 637.735 458.877 637.645L472.635 622.69L477.539 628.629C473.348 634.665 470.241 638.931 469.28 639.787ZM487.045 638.772L487.468 650.484L473.306 652.677L468.422 647.748C471.204 645.802 472.905 644.607 472.982 644.547C474.152 643.637 477.463 639.205 481.726 633.136L487.045 638.772ZM488.086 667.593L474.354 653.735L487.511 651.697L488.086 667.593ZM488.064 669.286L485.351 678.528L475.159 671.769L470.994 666.693L480.467 661.617L488.064 669.286ZM449.592 660.857L458.102 672.233L445.789 678.833L437.282 669.365C441.353 666.562 445.557 663.655 449.592 660.857ZM391.245 666.668L410.137 659.9C410.141 659.899 410.144 659.895 410.148 659.894C410.151 659.893 410.155 659.893 410.158 659.892L422.657 654.893L432.215 665.531C421.294 673.018 411.821 679.433 410.251 680.293C408.439 681.004 400.123 683.973 395.687 685.549L391.245 666.668ZM390.102 667.077L394.586 686.133C394.461 686.233 394.331 686.327 394.222 686.446L372.864 709.887L361.273 677.404L390.102 667.077ZM381.727 631.482L389.824 665.895L360.868 676.267L343.845 628.563L343.844 628.562L338.162 612.222L372.121 602.07L381.727 631.482ZM441.19 620.264L428.996 607.958L447.046 591.704L457.74 604.653L441.19 620.264ZM442.04 621.122L458.51 605.586L471.859 621.752L457.99 636.828C457.92 636.904 457.882 636.994 457.858 637.087L442.04 621.122ZM446.986 655.362L429.922 632.552L441.162 621.95L463.148 644.139C459.018 647.029 453.231 651.048 446.986 655.362ZM460.172 653.504C462.934 651.58 465.404 649.856 467.418 648.449L471.927 652.999L472.883 653.964L479.58 660.723L470.214 665.743L460.172 653.504ZM459.179 654.195L469.131 666.323L459.177 671.657L450.584 660.17C453.606 658.072 456.513 656.05 459.179 654.195ZM401.454 625.527L414.178 621.236C414.257 621.21 414.327 621.168 414.388 621.112L428.098 608.766L440.312 621.092L412.745 647.096L401.454 636.967V625.527ZM400.248 637.236C400.248 637.408 400.32 637.571 400.448 637.685L411.865 647.927L408.048 651.528C407.896 651.671 407.828 651.882 407.87 652.086L409.241 658.94L390.967 665.486L383.025 631.741L400.248 625.933V637.236ZM422.6 653.617L410.384 658.504L409.118 652.176L429.039 633.385L445.994 656.049C441.791 658.951 437.415 661.964 433.218 664.842L423.272 653.774C423.103 653.586 422.835 653.523 422.6 653.617ZM402.13 588.781L430.788 572.516C430.654 572.735 430.664 573.019 430.841 573.224L446.264 590.785L413.675 620.132L382.699 630.578L373.275 601.724L373.28 601.723L372.901 600.578L371.106 595.083L391.599 588.13L401.789 588.857C401.908 588.866 402.026 588.84 402.13 588.781ZM484.997 679.74L481.428 691.893L468.898 684.651L459.909 672.634L469.91 667.274L474.284 672.604C474.322 672.651 474.367 672.691 474.417 672.724L484.997 679.74ZM495.571 686.752L489.927 696.805L482.504 692.514L486.049 680.437L495.571 686.752ZM491.35 711.197L481.394 718.779L479.47 716.535L489.238 708.712L491.35 711.197ZM494.288 714.653C491.428 717.307 488.343 720.153 485.105 723.111L482.179 719.696L492.132 712.117L494.288 714.653ZM491.545 750L489.246 745.141L500 736.528V734.989L488.719 744.028L483.416 732.822C486.698 729.855 489.881 726.949 492.894 724.176L500 733.505V731.515L493.785 723.356C495.963 721.349 498.039 719.424 500 717.598V709.329C498.487 710.745 496.879 712.247 495.173 713.832L490.18 707.957L495.347 703.819L500 708.587V706.859L496.294 703.061L500 700.092V698.548L495.447 702.193L490.901 697.535L496.579 687.42L500 689.688V688.241L486.404 679.226L489.318 669.299C489.341 669.232 489.354 669.163 489.346 669.092L488.712 651.511L500 649.763V648.543L488.668 650.299L488.26 638.979L494.969 637.135L500 639.155V637.855L495.229 635.94C495.107 635.891 494.972 635.883 494.845 635.919L487.829 637.846L482.433 632.129C487.676 624.63 494.209 614.907 500 606.188V595.25C498.189 597.992 496.322 600.809 494.439 603.64L443.093 564.594C443.081 564.585 443.068 564.575 443.054 564.565L443.012 564.533L409.881 545.39L341.029 503.418L270.051 457.08C269.039 455.63 258.921 441.155 255.727 437.252C253.244 434.216 240.644 423.015 234.13 417.282C232.205 411.984 230.73 407.92 229.881 405.579L262.311 384.444C273.03 400.878 285.76 415.461 300.604 428.332C307.184 434.038 315.885 440.789 325.989 448.183C326.066 448.247 326.145 448.304 326.227 448.358C379.745 487.5 472.431 544.628 500 561.469V554.4C494.109 550.793 486.139 545.893 476.74 540.063L498.646 527.483C498.847 527.369 498.969 527.14 498.947 526.915L498.223 517.505C498.201 517.215 497.975 516.981 497.685 516.951L493.429 516.503L490.1 509.842L497.901 505.781C498.163 505.644 498.287 505.337 498.194 505.055L493.763 491.761L499.381 488.391C499.643 488.233 499.748 487.904 499.618 487.623L492.779 472.699L500 469.559V468.244L492.276 471.602L487.813 461.862L500 456.687V455.377L487.353 460.746L482.579 447.773L495.505 443.483L500 453.839V447.782L457.708 350.363C464.511 347.437 471.525 344.421 478.33 341.495L500 395.461V392.223L479.437 341.019C486.744 337.878 493.776 334.855 500 332.179V325.614C499.45 325.851 498.904 326.086 498.34 326.328L492.838 307.989L500 305.343V304.056L492.49 306.831L476.724 254.278L492.237 254.753C492.244 254.774 492.242 254.796 492.252 254.817L500 271.249V268.421L493.574 254.794L500 254.991V253.784L476.634 253.068L486.352 203.283C486.362 203.236 486.366 203.189 486.363 203.142L484.839 166.266C484.84 166.237 484.839 166.211 484.836 166.183L484.598 160.449L500 164.214V158.005L484.898 154.313L499.756 53.1332L500 53.2092V43.1842L498.947 50.3582L484.625 45.9242L488.029 36.9372L494.041 36.3212C494.326 36.2922 494.551 36.0672 494.58 35.7812L495.605 25.6482C495.634 25.3172 495.397 25.0202 495.065 24.9872C494.734 24.9542 494.438 25.1952 494.405 25.5272L493.429 35.1712L487.536 35.7742C487.309 35.7982 487.114 35.9472 487.034 36.1612L483.47 45.5672L475.474 43.0922C475.435 43.0802 475.395 43.0702 475.354 43.0612L472.67 42.5242L474.802 34.1812C474.865 33.9292 474.76 33.6612 474.539 33.5212L447.274 16.4362C447.004 16.2662 446.648 16.3372 446.464 16.5962L438.571 27.6552L419.467 15.5172C422.893 10.0862 426.322 4.82124 429.581 0.000244141H422.386C419.799 3.90324 417.115 8.05224 414.424 12.3132L395.045 0.000244141H390.546L413.138 14.3542C405.306 26.8412 397.528 40.0602 391.917 50.6512C388.019 49.0372 381.761 46.4822 375.14 43.9242L390.607 8.43624C390.741 8.12824 390.6 7.77524 390.295 7.64224C389.989 7.50924 389.635 7.64924 389.501 7.95424L383.788 21.0632L353.948 20.1222L351.092 16.5692C350.883 16.3102 350.504 16.2682 350.244 16.4772C350.095 16.5962 350.018 16.7712 350.018 16.9472C350.018 17.0802 350.062 17.2132 350.151 17.3252L353.182 21.0942C353.293 21.2312 353.457 21.3142 353.634 21.3202L383.268 22.2542L374.013 43.4902C366.827 40.7322 359.361 38.0372 354.154 36.6002C340.705 32.8902 315.951 33.7422 314.904 33.7802C314.422 33.7982 313.997 34.1002 313.823 34.5502L287.378 102.801C285.592 102.236 283.948 101.694 282.468 101.181L280.715 100.304L268.543 36.6242L269.032 35.8682C279.487 32.5632 338.369 13.9452 349.649 10.2722C351.524 9.66124 353.249 8.85124 354.832 7.91924L362.125 13.0932C362.256 13.1852 362.417 13.2222 362.575 13.1952C362.732 13.1692 362.874 13.0802 362.966 12.9492L367.892 5.98724C368.083 5.71624 368.019 5.34024 367.748 5.14724C367.475 4.95424 367.099 5.01924 366.907 5.29124L362.33 11.7592L355.946 7.23024C359.218 5.09224 361.811 2.44824 363.775 0.000244141H362.175C359.192 3.51924 354.904 7.29324 349.275 9.12524C338.425 12.6572 283.506 30.0272 270.061 34.2782L288.729 5.44824L301.331 12.3682C301.624 12.5282 301.99 12.4222 302.15 12.1302C302.312 11.8382 302.204 11.4712 301.912 11.3112L289.386 4.43424L292.259 0.000244141H289.384L267.466 33.8472L252.458 0.000244141H249.819L253.625 8.58324L250.429 12.2012C250.328 12.3162 250.285 12.4862 250.279 12.6152L250.576 24.7452H236.583L235.151 17.9822C235.099 17.7422 234.908 17.5572 234.667 17.5132L219.067 14.7132L220.685 0.000244141H219.471L219.043 3.89724L166.341 5.90724C166.25 5.91024 166.161 5.93424 166.081 5.97624L161.197 8.56824C153.232 6.83424 142.641 6.21724 129.614 5.46624C129.215 5.44424 128.8 5.41924 128.395 5.39624C127.993 3.56324 127.592 1.75924 127.196 0.000244141H121.003C121.374 1.63724 121.751 3.31724 122.13 5.02624C119.66 4.87624 117.122 4.71124 114.532 4.52824L113.533 0.000244141H112.298L113.278 4.43924C108.973 4.12824 104.519 3.75724 99.9534 3.29824L99.5944 0.000244141H98.3814L98.7264 3.17124C97.9484 3.09024 97.1764 3.01424 96.3924 2.92824C89.5574 2.17824 79.8714 1.15524 68.7604 0.000244141H9.60037C13.6014 0.406244 17.6704 0.819244 21.8084 1.24024L16.8814 35.9992V36.0002L13.7744 55.4862H0.000366211V56.6922H13.5814L8.52337 88.4092L0.000366211 86.5492V87.7832L8.33337 89.6022L3.53037 119.724C2.33137 119.678 1.15837 119.575 0.000366211 119.446V125.531C2.35937 125.761 4.79837 125.852 7.31137 125.757C13.7694 125.513 19.8464 123.554 25.2714 120.833L41.6354 134.225L34.3534 146.829C34.3474 146.839 34.3484 146.851 34.3434 146.861C34.3374 146.874 34.3264 146.882 34.3214 146.894L30.1834 156.586L10.1894 147.524C10.1734 147.517 10.1554 147.517 10.1374 147.511C10.1234 147.506 10.1134 147.495 10.0974 147.491C10.0804 147.486 10.0634 147.491 10.0464 147.487C10.0254 147.484 10.0064 147.474 9.98437 147.472L0.000366211 146.739V147.948L9.16637 148.621L0.824366 179.403L0.000366211 179.234V180.465L10.6854 182.648L3.15337 205.59L0.000366211 205.001V206.227L3.48837 206.878L48.4014 212.35L40.9064 234.168C25.8304 231.357 14.6864 229.325 11.6854 228.779C8.80737 226.867 4.70737 224.145 0.000366211 221.023V228.26C1.47637 229.239 2.93237 230.206 4.35537 231.151L0.000366211 233.148V239.783L10.9304 234.771C22.8594 236.94 40.2394 240.151 59.1324 243.73C57.3774 250.451 54.1294 262.434 49.8934 276.077L39.0924 271.695C39.0294 271.669 38.9624 271.654 38.8944 271.651C38.7894 271.646 28.4004 271.161 22.0084 271.652C20.9024 271.737 18.0044 272.73 13.9234 274.331C13.9124 274.335 13.9014 274.333 13.8914 274.337C13.8854 274.34 13.8844 274.346 13.8784 274.348C10.1074 275.828 5.32337 277.828 0.000366211 280.115V281.429C5.26237 279.164 10.0254 277.164 13.8024 275.666L19.5334 289.09C19.6644 289.396 20.0194 289.538 20.3254 289.407C20.6314 289.276 20.7754 288.923 20.6434 288.616L14.9264 275.224C18.5584 273.808 21.1314 272.929 22.1014 272.855C28.0794 272.395 37.6404 272.802 38.7344 272.851L49.5334 277.233C48.1574 281.638 46.6804 286.202 45.1204 290.809L9.71137 305.843L0.000366211 283.792V286.784L8.60037 306.315L0.000366211 309.966V311.277L44.5994 292.341C39.1204 308.357 32.6594 324.712 25.9084 336.436L17.8334 329.031C17.6744 328.885 17.4494 328.835 17.2434 328.901L0.000366211 334.366V336.775L4.75037 344.092L0.000366211 346.894V348.294L5.90537 344.811C6.04737 344.727 6.14837 344.59 6.18637 344.429C6.22437 344.27 6.19437 344.101 6.10537 343.964L0.576366 335.448L17.2754 330.155L25.2964 337.511C19.9654 346.822 15.5484 355.545 11.9594 363.981L0.812366 359.846L0.000366211 358.625V360.744C0.0623662 360.809 0.123366 360.878 0.208366 360.909L11.4914 365.087C5.99637 378.229 2.50837 390.714 0.695366 403.707H0.000366211V404.913H0.534366C0.329366 406.472 0.158366 408.045 0.000366211 409.622V446.826L0.0323662 446.814C0.302366 450.369 0.625366 454.046 0.987366 457.785C0.679366 457.789 0.347366 457.794 0.000366211 457.799V460.213C0.437366 460.206 0.852366 460.2 1.22537 460.195C1.91037 467.011 2.71437 473.976 3.55237 480.709L0.000366211 481.292V482.514L3.70237 481.906C4.92737 491.65 6.21437 500.843 7.30837 508.31L0.000366211 509.087V510.299L7.48437 509.505C8.60637 517.117 9.50037 522.76 9.87437 525.085L0.762366 527.383L0.000366211 522.885V538.196L1.01837 529.032C1.02437 528.975 1.02237 528.92 1.01337 528.864L0.964366 528.577L9.96837 526.305L8.60637 542.745L0.000366211 543.685V546.112L8.40337 545.194L5.90437 575.362L0.000366211 574.487V575.706L5.80437 576.566L4.35337 594.081L0.000366211 595.619V602.015L2.96737 600.967L1.43337 607.337C1.00637 607.381 0.517366 607.43 0.000366211 607.483V613.546C1.27437 613.415 2.51937 613.288 3.72537 613.165C9.69137 614.334 73.0314 626.741 133.023 638.345C131.401 648.163 129.625 658.757 128.128 667.596C128.108 667.714 128.105 667.831 128.12 667.948L135.526 727.201C135.544 727.344 135.588 727.484 135.655 727.612L147.415 750H150.14L137.893 726.684L130.535 667.824C131.065 664.695 133.238 651.844 135.393 638.803C145.446 640.748 155.381 642.665 164.913 644.497C167.646 655.795 177.366 695.16 181.282 700.116C184.58 704.29 189.368 701.838 195.995 698.443C199.122 696.841 202.665 695.026 206.681 693.581C218.15 689.451 238.255 683.541 240.81 682.793L262.264 696.977C262.371 697.048 262.497 697.082 262.625 697.077L327.204 694.11C327.356 694.103 327.499 694.039 327.606 693.93L330.769 690.724C339.132 712.638 345.237 728.662 345.997 730.656C346.288 731.933 347.973 739.341 350.34 750H356.526C354.712 741.832 353.26 735.405 352.467 731.906L362.599 729.056C362.695 729.165 362.829 729.239 362.984 729.256L373.041 730.38C373.119 730.387 373.199 730.382 373.276 730.359L390.077 725.485L393.731 750H394.951L390.794 722.12L403.483 726.795L406.016 750H407.23L404.695 726.781L469.042 706.071C469.137 706.041 469.223 705.987 469.293 705.915L480.847 693.873L473.167 720.039L446.632 741.291C446.516 741.303 446.401 741.34 446.306 741.422C446.221 741.495 446.171 741.589 446.136 741.687L435.759 750H437.687L446.687 742.792L452.873 750H454.463L447.63 742.037L458.334 733.465L464.575 741.484C461.228 744.405 457.899 747.266 454.653 750H463.96C465.843 748.382 467.734 746.748 469.63 745.09L472.878 750H474.324L470.547 744.289C474.572 740.759 478.589 737.177 482.481 733.666L487.687 744.669L478.1 750H480.569L488.201 745.754L490.21 750H491.545Z" fill="white"/>
</g>
</g>
<defs>
<clipPath id="clip0_229_757267">
<rect x="393" width="200" height="393" rx="24" transform="rotate(90 393 0)" fill="white"/>
</clipPath>
<clipPath id="clip1_229_757267">
<rect width="500" height="750" fill="white"/>
</clipPath>
</defs>
</svg>
