<svg width="24" height="24" viewBox="0 0 24 24" fill="none" xmlns="http://www.w3.org/2000/svg">
<path fill-rule="evenodd" clip-rule="evenodd" d="M18.6035 15.8213C18.1224 15.9107 17.6262 15.9575 17.1192 15.9575C12.6633 15.9575 9.05109 12.3453 9.05109 7.88939C9.05109 6.87122 9.23969 5.89711 9.58385 5.00008C5.83692 5.69684 3 8.9831 3 12.932C3 17.3879 6.61222 21.0001 11.0681 21.0001C14.5059 21.0001 17.4414 18.85 18.6035 15.8213Z" fill="#F0FDF4"/>
<path d="M18.6035 15.8213L19.5371 16.1795C19.6668 15.8415 19.6037 15.4598 19.3721 15.1815C19.1405 14.9033 18.7766 14.7719 18.4207 14.8381L18.6035 15.8213ZM9.58385 5.00008L10.5175 5.35829C10.6472 5.02029 10.5841 4.6386 10.3525 4.36035C10.1209 4.0821 9.75696 3.95075 9.40103 4.01693L9.58385 5.00008ZM18.4207 14.8381C17.9995 14.9164 17.5646 14.9575 17.1192 14.9575V16.9575C17.6879 16.9575 18.2452 16.905 18.7863 16.8044L18.4207 14.8381ZM17.1192 14.9575C13.2156 14.9575 10.0511 11.793 10.0511 7.88939H8.05109C8.05109 12.8976 12.111 16.9575 17.1192 16.9575V14.9575ZM10.0511 7.88939C10.0511 6.99559 10.2165 6.14279 10.5175 5.35829L8.65021 4.64187C8.26287 5.65144 8.05109 6.74685 8.05109 7.88939H10.0511ZM4 12.932C4 9.47362 6.48475 6.59351 9.76668 5.98322L9.40103 4.01693C5.18909 4.80016 2 8.49258 2 12.932H4ZM11.0681 20.0001C7.1645 20.0001 4 16.8356 4 12.932H2C2 17.9401 6.05994 22.0001 11.0681 22.0001V20.0001ZM17.6698 15.4631C16.6512 18.1181 14.0782 20.0001 11.0681 20.0001V22.0001C14.9335 22.0001 18.2317 19.582 19.5371 16.1795L17.6698 15.4631Z" fill="#16A34A"/>
<path fill-rule="evenodd" clip-rule="evenodd" d="M18 2C18.5523 2 19 2.44772 19 3V3.5C19 4.32843 19.6716 5 20.5 5H21C21.5523 5 22 5.44772 22 6C22 6.55228 21.5523 7 21 7H20.5C19.6716 7 19 7.67157 19 8.5V9C19 9.55228 18.5523 10 18 10C17.4477 10 17 9.55228 17 9V8.5C17 7.67157 16.3284 7 15.5 7H15C14.4477 7 14 6.55228 14 6C14 5.44772 14.4477 5 15 5H15.5C16.3284 5 17 4.32843 17 3.5V3C17 2.44772 17.4477 2 18 2Z" fill="#16A34A"/>
</svg>
