<svg width="232" height="142" viewBox="0 0 232 142" fill="none" xmlns="http://www.w3.org/2000/svg">
<mask id="mask0_220_756953" style="mask-type:luminance" maskUnits="userSpaceOnUse" x="0" y="8" width="232" height="134">
<path fill-rule="evenodd" clip-rule="evenodd" d="M0 8.02759H231.494V142H0V8.02759Z" fill="white"/>
</mask>
<g mask="url(#mask0_220_756953)">
<path fill-rule="evenodd" clip-rule="evenodd" d="M128.388 9.06542C97.7655 8.69696 64.7885 8.39129 35.5611 8.68052C29.7054 8.73882 23.7168 8.88306 18.2333 10.9578C11.2827 13.5878 5.57059 19.3769 2.98991 26.4082C1.26872 31.0979 0.909981 36.1688 0.589359 41.1598C-0.823919 63.1564 0.824781 88.2696 0.241084 110.304C0.0647049 116.974 0.0213575 122.229 3.36584 127.983C6.76638 133.832 12.9225 138.247 19.5606 139.272C34.7472 141.616 55.5398 140.586 70.1509 140.532C111.639 140.381 154.298 142.468 195.852 141.902C201.853 141.821 207.94 141.669 213.692 139.934C219.444 138.199 224.85 134.139 227.666 128.784C230.202 123.96 230.404 118.788 230.404 113.325C230.409 88.4968 233.191 63.6683 229.849 39.0709C228.955 32.4865 227.833 25.6429 223.988 20.2498C216.407 9.61698 197.033 8.36364 184.064 8.0886C164.794 7.67979 147.658 9.47423 128.388 9.06542" fill="#FF405A"/>
</g>
<path fill-rule="evenodd" clip-rule="evenodd" d="M204.884 54.6708C205.039 53.8951 213.262 44.896 220.4 46.4475C227.537 47.999 227.382 54.5154 225.83 57.3083C224.279 60.1012 221.135 62.0444 218.383 64.6004C215.217 67.5413 210.331 75.7773 210.331 75.7773L199.299 79.8057L204.884 54.6708Z" fill="#FFA4AC"/>
<path fill-rule="evenodd" clip-rule="evenodd" d="M139.169 66.4581C139.169 66.4581 131.026 51.335 123.465 52.7886C115.903 54.243 117.066 65.5859 122.883 75.1829C128.699 84.7806 128.991 97.2864 128.991 97.2864L126.965 141.248C145.03 141.623 163.119 142.001 181.056 141.998L181.05 134.512C181.05 134.512 197.845 130.925 201.625 120.746C205.406 110.567 139.169 66.4581 139.169 66.4581" fill="#FFA4AC"/>
<path fill-rule="evenodd" clip-rule="evenodd" d="M133.651 123.786L185.677 129.35C190.767 129.894 195.568 125.768 196.555 120.002L213.873 18.8015C214.918 12.7 211.303 7.14103 205.917 6.56555L144.973 0.0484784C139.512 -0.535966 134.471 4.236 133.958 10.4736L125.558 112.627C125.087 118.359 128.634 123.25 133.651 123.786" fill="#004656"/>
<path fill-rule="evenodd" clip-rule="evenodd" d="M147.557 11.277L200.668 16.8449C204.372 17.2336 206.833 21.232 206.085 25.6475L191.222 113.32C190.514 117.496 187.184 120.507 183.682 120.139L137.661 115.315C134.202 114.952 131.783 111.421 132.149 107.266L139.919 18.8494C140.316 14.3457 143.806 10.8839 147.557 11.277" fill="#E7E7E7"/>
<path fill-rule="evenodd" clip-rule="evenodd" d="M200.668 16.8449L147.557 11.277C143.807 10.8839 140.316 14.3457 139.92 18.8494L132.595 102.178L192.178 107.68L206.084 25.6475C206.833 21.232 204.373 17.2336 200.668 16.8449" fill="#E7E7E7"/>
<path fill-rule="evenodd" clip-rule="evenodd" d="M179.22 11.3056L159.897 9.35567C158.496 9.21442 157.48 8.08141 157.628 6.82508C157.776 5.56874 159.03 4.66443 160.432 4.80643L179.754 6.75632C181.156 6.89757 182.172 8.03058 182.025 9.28692C181.877 10.5432 180.621 11.4468 179.22 11.3056" fill="#006880"/>
<path fill-rule="evenodd" clip-rule="evenodd" d="M187.877 12.1795V12.1795C186.476 12.0383 185.46 10.9052 185.608 9.64892C185.755 8.39258 187.01 7.48901 188.412 7.63027C189.813 7.77152 190.829 8.90453 190.681 10.1609C190.534 11.4172 189.279 12.3208 187.877 12.1795" fill="#006880"/>
<path fill-rule="evenodd" clip-rule="evenodd" d="M128.736 102.811C110.735 86.9559 57.4104 75.2633 34.1567 96.3863C34.1567 96.3863 35.641 94.2914 33.0469 95.2712C28.7159 96.899 19.2467 104.847 13.258 113.965C9.87615 119.116 7.65197 126.01 6.24243 131.895C9.73415 135.743 14.5054 138.492 19.5606 139.272C34.7472 141.616 55.5398 140.586 70.1509 140.532C93.3567 140.448 121.453 141.149 144.993 141.61C143.534 131.328 139.553 112.34 128.736 102.811" fill="black"/>
<path fill-rule="evenodd" clip-rule="evenodd" d="M54.1418 92.7919C44.5971 93.1895 45.4409 99.8224 45.4409 99.8224C45.4357 102.718 48.1808 105.488 50.2951 107.461C52.4094 109.434 65.676 121.815 65.676 121.815C66.6252 122.785 67.4488 122.673 68.0242 121.578L75.0742 111.085L84.5845 120.469C85.4634 121.324 86.0837 121.203 86.5807 120.214L91.8287 105.726C92.7136 103.698 93.4094 100.721 92.2899 98.7088C92.2899 98.7088 90.9767 93.5094 87.0635 93.6723C83.1495 93.8352 63.6865 92.395 54.1418 92.7919" fill="#2D2D2D"/>
<path fill-rule="evenodd" clip-rule="evenodd" d="M74.3638 110.465C75.1172 117.614 75.816 124.77 76.2771 131.944C76.3421 132.964 77.9378 132.971 77.872 131.944C77.4116 124.77 76.7121 117.614 75.9595 110.465C75.8526 109.454 74.2562 109.443 74.3638 110.465" fill="#2D2D2D"/>
<path fill-rule="evenodd" clip-rule="evenodd" d="M56.7006 87.9291C56.7006 87.9291 54.1327 100.679 40.0477 100.634C25.9613 100.589 15.6236 83.2909 20.6729 64.2928C25.7221 45.2939 36.6016 21.3249 55.9705 18.6224C75.3386 15.9199 93.8771 19.7861 103.992 39.9756C114.108 60.1658 118.474 78.4218 112.342 87.9216C106.211 97.4215 95.9092 94.9305 92.3839 91.9851L56.7006 87.9291Z" fill="black"/>
<path fill-rule="evenodd" clip-rule="evenodd" d="M59.2661 40.5562C59.2661 40.5562 78.5976 51.4887 99.5016 47.4574C99.5016 47.4574 106.546 69.0258 100.811 82.4343C95.0764 95.8429 86.7357 99.1164 76.712 97.4849C66.689 95.8534 56.7004 87.929 56.7004 87.929C56.7004 87.929 59.781 70.5325 44.7611 57.6956C44.7611 57.6956 55.3147 58.1343 59.2661 40.5562" fill="#FFA4AC"/>
<path fill-rule="evenodd" clip-rule="evenodd" d="M77.9299 70.1731C77.9262 70.2531 77.8851 70.3996 77.9434 70.147C77.9307 70.2008 77.924 70.2561 77.912 70.3099C77.8985 70.3637 77.8836 70.4168 77.8664 70.4691C77.8552 70.502 77.7954 70.6582 77.8537 70.5132C77.912 70.3682 77.847 70.5207 77.8305 70.552C77.8051 70.6014 77.7775 70.6499 77.7483 70.6963C77.7192 70.7426 77.6811 70.7867 77.6549 70.8338C77.7655 70.638 77.7154 70.7561 77.6594 70.8181C77.5906 70.8943 77.5144 70.9601 77.4397 71.0289C77.3574 71.1044 77.6108 70.916 77.4733 71.0012C77.4262 71.0304 77.3814 71.0625 77.3328 71.0902C77.2849 71.1178 77.2356 71.1417 77.1863 71.1671C77.0316 71.2449 77.3836 71.1088 77.2035 71.1567C77.1048 71.1828 77.0099 71.2097 76.909 71.2307C76.7947 71.2538 77.1325 71.215 76.9666 71.2187C76.9128 71.2202 76.8589 71.2232 76.8044 71.2217C76.7528 71.2202 76.6938 71.2082 76.6422 71.2112C76.7095 71.2067 76.856 71.2464 76.702 71.215C76.6041 71.1948 76.5114 71.1634 76.415 71.135C76.2364 71.0827 76.5899 71.2232 76.4352 71.1455C76.3874 71.1215 76.338 71.0976 76.2909 71.0707C76.2431 71.0438 76.1975 71.0147 76.1519 70.9848C76.1235 70.9661 75.9845 70.8764 76.1138 70.9609C76.2446 71.0461 76.0914 70.9362 76.0637 70.91C76.0309 70.8794 75.9987 70.8473 75.9681 70.8144C75.9307 70.7748 75.8986 70.7314 75.862 70.6918C76.0301 70.8734 75.921 70.765 75.8821 70.7023C75.8238 70.6103 75.776 70.5139 75.7334 70.4138C75.649 70.2157 75.3762 70.0416 75.1789 69.987C74.9569 69.9265 74.6617 69.9541 74.4644 70.0812C74.2671 70.2083 74.0922 70.3988 74.0391 70.635C73.9793 70.8951 74.0294 71.1066 74.1325 71.3495C74.6639 72.6036 76.1086 73.2321 77.4023 73.0184C78.749 72.7964 79.7259 71.49 79.7842 70.1731C79.8058 69.6881 79.3425 69.224 78.8567 69.2464C78.3365 69.2696 77.9524 69.6537 77.9299 70.1731" fill="black"/>
<path fill-rule="evenodd" clip-rule="evenodd" d="M78.1211 70.5392C78.2983 70.9107 78.6129 71.2141 78.9343 71.4622C79.4238 71.8404 80.0142 72.0579 80.6353 72.0743C81.2325 72.09 81.8595 71.8942 82.3886 71.6282C82.9043 71.3681 83.3565 70.9219 83.5867 70.3898C83.9477 69.5602 83.9716 68.623 83.7324 67.7538C83.6031 67.2867 83.068 66.9526 82.5912 67.1066C82.1136 67.2613 81.8057 67.7463 81.944 68.247C81.9694 68.3405 81.9933 68.4339 82.0112 68.5296C82.0209 68.5766 82.0292 68.6245 82.0359 68.6723C82.0194 68.546 82.0164 68.5355 82.0277 68.6417C82.0314 68.8128 82.0314 68.9787 82.0284 69.1491C82.0172 69.256 82.0202 69.2455 82.0374 69.1192C82.0299 69.1671 82.0224 69.2149 82.0127 69.262C81.997 69.3464 81.9768 69.4301 81.9514 69.5116C81.9454 69.5303 81.9387 69.549 81.9335 69.5677C81.8984 69.6618 81.9081 69.6409 81.9641 69.5056C81.9223 69.5475 81.8961 69.6446 81.864 69.6969C81.8453 69.7261 81.8266 69.7552 81.8072 69.7836C81.7496 69.8621 81.7676 69.8389 81.8595 69.7164C81.8281 69.7351 81.7848 69.7986 81.7579 69.8255C81.6891 69.8935 81.5307 69.9645 81.7608 69.8389C81.7055 69.8688 81.6555 69.9129 81.6002 69.9458C81.5598 69.9705 81.5172 69.9944 81.4739 70.0161C81.3984 70.0557 81.2018 70.1028 81.4753 70.0228C81.3595 70.0564 81.2481 70.1058 81.1316 70.1394C81.0777 70.1551 81.0232 70.17 80.9686 70.1835C80.9357 70.1917 80.7511 70.2096 80.7377 70.2313C80.8842 70.2126 80.9081 70.2081 80.8065 70.2171C80.7781 70.2186 80.7497 70.2201 80.7205 70.2201C80.6555 70.2216 80.5912 70.2164 80.5254 70.2134C80.3573 70.2074 80.7601 70.2635 80.5105 70.2059C80.4447 70.191 80.3797 70.1715 80.3162 70.1499C80.2265 70.1192 80.1622 70.0333 80.3558 70.17C80.3072 70.1349 80.2414 70.114 80.1891 70.0833C80.1361 70.0527 80.0867 70.0176 80.0359 69.9854C79.8909 69.895 80.2093 70.1342 80.0845 70.025C80.0038 69.9548 79.9238 69.8845 79.8513 69.8053C79.8266 69.7784 79.805 69.7493 79.7803 69.7231C79.6802 69.6162 79.9328 69.9458 79.8259 69.7807C79.7885 69.7231 79.7519 69.6656 79.722 69.6035C79.5113 69.1648 78.8506 69.0146 78.453 69.2702C78.0031 69.5609 77.8962 70.0699 78.1211 70.5392" fill="black"/>
<path fill-rule="evenodd" clip-rule="evenodd" d="M83.7323 67.754C82.2398 63.3304 80.8078 58.8865 79.4356 54.4239C79.0851 53.2864 77.2952 53.7715 77.6472 54.9165C79.0193 59.379 80.4513 63.8229 81.9438 68.2473C82.3235 69.3721 84.1149 68.8893 83.7323 67.754" fill="black"/>
<path fill-rule="evenodd" clip-rule="evenodd" d="M63.8181 62.996C63.8181 62.996 70.4249 62.4937 72.0385 60.6829C73.652 58.872 70.9959 55.6471 67.6663 55.5589C64.3383 55.4699 59.2435 56.8944 58.1112 58.8368C56.9797 60.7793 57.0014 64.404 63.8181 62.996" fill="white"/>
<path fill-rule="evenodd" clip-rule="evenodd" d="M90.2959 58.1359C90.2959 58.1359 96.9027 57.6336 98.5162 55.8227C100.13 54.0126 97.4737 50.7877 94.1441 50.6988C90.8161 50.6098 85.7213 52.0343 84.589 53.9767C83.4575 55.9192 83.4791 59.5439 90.2959 58.1359" fill="white"/>
<path fill-rule="evenodd" clip-rule="evenodd" d="M95.8368 60.5794C96.7568 60.5219 97.641 60.2924 98.5416 60.1146C98.8046 60.0637 99.0774 59.8268 99.209 59.6019C99.3487 59.3627 99.4078 59.0099 99.3211 58.7416C99.2344 58.4718 99.0662 58.211 98.8084 58.0742C98.5311 57.9285 98.2561 57.9016 97.9481 57.9621C97.3256 58.0847 96.712 58.2454 96.0835 58.3328C96.1821 58.3194 96.2815 58.3059 96.3802 58.2925C96.1993 58.3171 96.0184 58.3351 95.8368 58.3463C95.5401 58.3657 95.2621 58.4584 95.0469 58.6736C94.854 58.8672 94.7075 59.1848 94.7203 59.4628C94.733 59.7521 94.8279 60.051 95.0469 60.2528C95.2576 60.4456 95.5416 60.5981 95.8368 60.5794" fill="#FF7482"/>
<path fill-rule="evenodd" clip-rule="evenodd" d="M60.9608 64.5016C60.3786 64.6436 59.7904 64.7565 59.197 64.8365C59.2949 64.823 59.3943 64.8096 59.4929 64.7961C59.3733 64.8125 59.2538 64.8267 59.1342 64.8409C58.981 64.835 58.8367 64.8671 58.7037 64.9366C58.5654 64.9822 58.4459 65.0592 58.345 65.1675C58.1506 65.3611 58.0049 65.6787 58.0176 65.9568C58.0303 66.2453 58.1252 66.545 58.345 66.746C58.5483 66.9336 58.8465 67.1062 59.1342 67.0733C59.9488 66.9799 60.7567 66.8491 61.5542 66.6548C61.8217 66.589 62.0841 66.3768 62.2216 66.1414C62.3613 65.9022 62.4204 65.5495 62.3337 65.2811C62.247 65.0113 62.0788 64.7505 61.8202 64.6137C61.5504 64.471 61.2612 64.4277 60.9608 64.5016" fill="#FF7482"/>
<path fill-rule="evenodd" clip-rule="evenodd" d="M95.8368 56.9885C98.8196 56.9885 98.8248 52.3525 95.8368 52.3525C92.8541 52.3525 92.8488 56.9885 95.8368 56.9885" fill="black"/>
<path fill-rule="evenodd" clip-rule="evenodd" d="M69.146 61.7815C72.1288 61.7815 72.1333 57.1455 69.146 57.1455C66.1633 57.1455 66.158 61.7815 69.146 61.7815" fill="black"/>
<path fill-rule="evenodd" clip-rule="evenodd" d="M67.6594 45.4449C63.3643 44.2947 58.7156 46.2827 56.6858 50.264C56.345 50.9329 56.5109 51.7722 57.185 52.1668C57.8053 52.5293 58.7455 52.3394 59.0878 51.6683C59.2769 51.2969 59.4877 50.9396 59.7298 50.6003C59.8703 50.4023 60.0856 50.1511 60.3621 49.8724C60.5168 49.7162 60.6775 49.5659 60.8449 49.4224C60.9189 49.3589 60.9936 49.2954 61.0713 49.2349C60.9592 49.3216 61.1057 49.2109 61.1401 49.187C61.4831 48.9501 61.8337 48.7304 62.2073 48.5435C63.6453 47.8216 65.3612 47.7095 66.9203 48.1273C67.6445 48.3216 68.4307 47.8836 68.631 47.1557C68.8291 46.433 68.3881 45.64 67.6594 45.4449" fill="black"/>
<path fill-rule="evenodd" clip-rule="evenodd" d="M75.128 111.16L52.9109 95.2101C52.9109 95.2101 53.8982 94.3103 55.2673 91.7288C56.4034 89.5854 56.7008 87.9292 56.7008 87.9292C56.7008 87.9292 70.9397 98.2272 80.6324 97.9148L75.128 111.16Z" fill="#FFA4AC"/>
<path fill-rule="evenodd" clip-rule="evenodd" d="M98.1607 47.8271C98.9462 50.6985 99.5134 53.6432 99.9992 56.5781C100.981 62.5085 101.516 68.6063 100.981 74.6084C100.12 84.3003 94.5173 94.6439 84.2237 96.5737C76.6319 97.9959 68.6717 94.9123 62.0246 91.5438C60.4319 90.7367 59.0224 93.1357 60.621 93.9459C67.2696 97.315 74.8465 100.225 82.4412 99.5938C87.7252 99.1543 92.5659 96.8636 96.1592 92.9467C99.8572 88.9168 102.339 83.7024 103.279 78.3318C104.412 71.8454 104.005 65.1751 103.112 58.6864C102.577 54.7941 101.88 50.8816 100.843 47.088C100.371 45.363 97.6869 46.0955 98.1607 47.8271" fill="black"/>
<path fill-rule="evenodd" clip-rule="evenodd" d="M45.328 48.7892L37.222 48.2354C38.2826 39.3978 40.5105 33.3904 49.3354 24.9645C54.0334 20.4795 61.7104 16.7046 65.7768 16.7487C73.909 16.8369 75.4508 18.1627 76.11 18.6799L69.8074 18.576C69.8074 18.576 61.0139 19.9474 55.1709 27.6446C45.3482 40.5831 45.328 48.7892 45.328 48.7892" fill="#545454"/>
<path fill-rule="evenodd" clip-rule="evenodd" d="M43.1035 76.6577C33.4467 78.3774 30.8518 70.4546 30.8518 70.4546C30.8518 70.4546 28.295 65.3022 30.1246 54.9533C31.9534 44.6052 45.1931 42.689 50.0249 50.3615C54.8559 58.0355 52.761 74.9395 43.1035 76.6577" fill="#004758"/>
<path fill-rule="evenodd" clip-rule="evenodd" d="M35.4735 66.336C34.259 66.3868 33.1768 64.067 33.0558 61.1545C32.9347 58.242 33.8196 55.8414 35.0348 55.7906C36.2493 55.7398 37.3322 58.0596 37.4533 60.9714C37.5751 63.8839 36.688 66.2859 35.4735 66.336" fill="#016981"/>
<path fill-rule="evenodd" clip-rule="evenodd" d="M43.4721 49.5585C44.8675 50.3343 45.6903 51.9434 46.2621 53.3716C47.0924 55.444 47.549 57.6847 47.7269 59.9043C47.9078 62.142 47.8375 64.4349 47.2912 66.6202C46.6357 69.2457 45.2165 72.1597 42.3869 72.8981C41.3705 73.1635 41.8017 74.7397 42.8219 74.4736C48.6596 72.949 49.7381 65.2137 49.3801 60.16C49.2022 57.6323 48.7172 55.0853 47.7546 52.7333C47.0363 50.9748 46.0162 49.1033 44.2965 48.1475C43.3765 47.6363 42.5521 49.0465 43.4721 49.5585" fill="#016981"/>
<mask id="mask1_220_756953" style="mask-type:luminance" maskUnits="userSpaceOnUse" x="34" y="67" width="33" height="22">
<path fill-rule="evenodd" clip-rule="evenodd" d="M34.699 69.3946C35.2819 70.9372 36.0263 72.4327 36.8043 73.8826V73.8826C39.7325 79.3264 43.9761 84.8719 49.9752 87.0617V87.0617C53.6291 88.395 57.7711 89.1566 61.6708 88.8374V88.8374C63.117 88.7179 64.6708 88.4869 65.9779 87.815V87.815C67.2522 87.1596 66.0415 85.2897 64.7762 85.9406V85.9406C64.7986 85.9294 64.8188 85.919 64.8367 85.91V85.91C64.7986 85.9257 64.7515 85.9444 64.6969 85.9631V85.9631C64.392 86.0692 64.0893 86.1738 63.7754 86.256V86.256C62.6379 86.5572 61.4578 86.6596 60.2441 86.6738V86.6738C58.4803 86.6955 56.7285 86.484 54.9998 86.1327V86.1327C53.0768 85.7426 51.1038 85.259 49.337 84.3809V84.3809C46.63 83.0349 44.3602 80.8944 42.494 78.5417V78.5417C40.1436 75.5791 38.1264 72.1778 36.8193 68.7137V68.7137C36.6272 68.2055 36.2004 67.988 35.7737 67.988V67.988C35.0794 67.988 34.3851 68.5628 34.699 69.3946V69.3946ZM64.8366 85.9099C64.9016 85.883 64.939 85.8636 64.9353 85.8636V85.8636C64.933 85.8636 64.9024 85.877 64.8366 85.9099V85.9099Z" fill="white"/>
</mask>
<g mask="url(#mask1_220_756953)">
<path fill-rule="evenodd" clip-rule="evenodd" d="M69.23 62.8816L30.7195 64.484L31.9392 93.8048L70.4505 92.2017L69.23 62.8816Z" fill="#D9D9D9"/>
</g>
<mask id="mask2_220_756953" style="mask-type:luminance" maskUnits="userSpaceOnUse" x="62" y="83" width="7" height="8">
<path fill-rule="evenodd" clip-rule="evenodd" d="M65.2432 83.6724C63.4734 83.7457 62.0983 85.2397 62.1715 87.0102V87.0102C62.2455 88.7807 63.7402 90.1559 65.51 90.0826V90.0826C67.2805 90.0086 68.6557 88.5146 68.5817 86.7441V86.7441C68.5099 85.0192 67.0885 83.6694 65.3785 83.6694V83.6694C65.3336 83.6694 65.2888 83.6702 65.2432 83.6724V83.6724Z" fill="white"/>
</mask>
<g mask="url(#mask2_220_756953)">
<path fill-rule="evenodd" clip-rule="evenodd" d="M72.0005 79.6777L58.1771 80.2532L58.7519 94.0766L72.5767 93.5011L72.0005 79.6777Z" fill="#545454"/>
</g>
<path fill-rule="evenodd" clip-rule="evenodd" d="M78.3985 85.3272C78.1892 85.5693 77.9628 85.795 77.7101 85.9931C77.7729 85.9445 77.8357 85.8959 77.8985 85.8473C77.6787 86.0155 77.4441 86.159 77.1892 86.2681C77.2625 86.2367 77.3372 86.2053 77.4112 86.1739C77.2064 86.2577 76.9964 86.3159 76.7774 86.3473C76.8589 86.3369 76.9418 86.3257 77.0241 86.3145C76.8372 86.3376 76.6519 86.3391 76.4643 86.3152C76.5465 86.3264 76.6294 86.3376 76.7117 86.3488C76.6803 86.3443 76.6496 86.3391 76.619 86.3339C76.3664 86.2898 76.1302 86.2935 75.9022 86.4273C75.7087 86.5402 75.5248 86.7614 75.4748 86.9834C75.4209 87.2218 75.4322 87.4893 75.5682 87.7001C75.6922 87.8929 75.8895 88.0865 76.1242 88.1283C76.5495 88.2023 76.9164 88.2008 77.3417 88.1313C77.6825 88.0753 78.0136 87.9415 78.3207 87.7853C78.8544 87.5132 79.3237 87.094 79.7146 86.6426C79.8775 86.4542 79.9866 86.242 79.9866 85.9849C79.9866 85.7569 79.885 85.4841 79.7146 85.3272C79.3648 85.0066 78.7385 84.9341 78.3985 85.3272" fill="black"/>
<path fill-rule="evenodd" clip-rule="evenodd" d="M79.4721 77.8656C78.0409 77.6264 76.5409 77.823 75.2704 78.5509C74.1441 79.1952 73.251 80.3401 73.2958 81.6884C73.3421 83.0553 74.3391 84.0949 75.6979 84.2063C77.0177 84.3147 78.1313 83.4089 78.5603 82.2063C78.9444 81.1316 78.6552 79.947 77.9885 79.0502C78.3727 79.0248 78.7591 79.0263 79.135 79.089C79.4728 79.1451 79.8181 79.0001 79.9153 78.6459C79.999 78.3417 79.8121 77.9224 79.4721 77.8656" fill="black"/>
<path fill-rule="evenodd" clip-rule="evenodd" d="M209.839 69.7198C215.005 69.3252 217.942 75.2496 214.975 82.9385C212.233 90.0483 206.51 89.9123 203.233 87.4138C200.625 85.4243 200.932 79.2772 201.747 77.1389C202.562 75 204.624 70.1181 209.839 69.7198" fill="#FFA4AC"/>
<path fill-rule="evenodd" clip-rule="evenodd" d="M199.054 105.54C204.968 107.776 208.279 103.083 209.556 98.083C211.139 91.8903 208.054 89.205 205.119 88.5114C202.185 87.8186 197.824 89.0772 195.784 95.4919C193.894 101.442 196.537 104.588 199.054 105.54" fill="#FFA4AC"/>
<path fill-rule="evenodd" clip-rule="evenodd" d="M194.033 122.722C190.473 120.145 189.219 110.225 195.635 105.605C200.337 102.22 205.424 108.914 202.69 118.381C201.298 123.2 197.324 125.106 194.033 122.722" fill="#FFA4AC"/>
<path fill-rule="evenodd" clip-rule="evenodd" d="M200.22 104.474C198.193 103.371 195.758 103.743 193.922 105.068C191.824 106.582 190.864 109.089 190.525 111.574C189.95 115.795 190.607 120.837 194.066 123.726C195.015 124.518 196.391 123.156 195.435 122.357C192.72 120.091 192.104 116.365 192.316 113.006C192.444 110.993 192.897 108.759 194.338 107.249C195.565 105.965 197.6 105.251 199.243 106.145C200.337 106.74 201.316 105.07 200.22 104.474" fill="black"/>
<path fill-rule="evenodd" clip-rule="evenodd" d="M206.283 87.4245C202.128 86.2863 197.864 89.2249 195.836 92.7017C193.668 96.4199 193.789 101.103 196.021 104.764C196.668 105.825 198.342 104.854 197.692 103.787C195.864 100.788 195.669 96.9849 197.388 93.8893C198.947 91.0791 202.377 88.3617 205.769 89.2907C206.971 89.6203 207.484 87.7533 206.283 87.4245" fill="black"/>
<path fill-rule="evenodd" clip-rule="evenodd" d="M212.628 68.7952C208.005 67.6084 203.299 70.3969 201.336 74.5904C199.394 78.7383 199.245 84.6724 202.344 88.3128C203.153 89.2627 204.516 87.8883 203.713 86.9451C201.224 84.0222 201.477 78.8683 203.007 75.5672C204.584 72.1629 208.296 69.6816 212.114 70.6614C213.321 70.9716 213.835 69.1054 212.628 68.7952" fill="black"/>
<path fill-rule="evenodd" clip-rule="evenodd" d="M172.612 134.995C176.115 135.612 179.675 135.561 183.156 134.831C184.094 134.635 183.697 133.199 182.761 133.395C179.556 134.068 176.234 134.128 173.008 133.559C172.071 133.394 171.669 134.828 172.612 134.995" fill="black"/>
<path fill-rule="evenodd" clip-rule="evenodd" d="M132.176 51.1127L129.86 68.4218C129.559 70.6751 131.167 72.7364 133.427 72.9912L189.514 79.3207C191.708 79.5689 193.698 78.0143 193.99 75.8245L196.478 57.1141C196.783 54.8219 195.114 52.7397 192.811 52.5379L136.551 47.6098C134.391 47.4199 132.464 48.9633 132.176 51.1127" fill="#545454"/>
<path fill-rule="evenodd" clip-rule="evenodd" d="M127.429 48.6284L125.843 65.8135C125.639 68.0309 127.245 70.0047 129.458 70.2544L190.245 77.1145C192.459 77.3641 194.466 75.7969 194.759 73.5884L197.238 54.9467C197.545 52.6358 195.862 50.5357 193.54 50.3324L131.86 44.9289C129.617 44.7324 127.636 46.3863 127.429 48.6284" fill="white"/>
<path fill-rule="evenodd" clip-rule="evenodd" d="M150.313 68.9859L135.359 67.3193C134.369 67.2087 133.639 66.3425 133.698 65.3477L134.515 51.5124C134.579 50.4437 135.524 49.6455 136.588 49.762L153.085 51.5632C154.158 51.6798 154.91 52.6783 154.726 53.7418L152.365 67.4434C152.197 68.4194 151.297 69.0958 150.313 68.9859" fill="#00AFDA"/>
<path fill-rule="evenodd" clip-rule="evenodd" d="M140.281 55.7964C140.281 55.7964 141.308 52.6806 145.164 53.4609C148.243 54.0842 148.505 57.2852 148.505 57.2852L142.541 57.9309L140.281 55.7964Z" fill="#B1E5F1"/>
<path fill-rule="evenodd" clip-rule="evenodd" d="M140.581 65.9621C141.387 66.4008 143.653 66.9135 145.033 66.6429C145.255 66.5996 145.636 66.4935 145.708 66.2887L147.978 58.6259C147.978 58.6259 149.072 58.5093 149.152 57.7694C149.234 57.0131 148.433 56.9675 147.962 56.9652C143.028 56.948 142.559 56.3651 140.723 55.685C140.537 55.6162 140.276 55.5333 140.276 55.5333C140.276 55.5333 139.508 55.4877 139.44 56.2328C139.394 56.7305 140.153 57.102 140.153 57.102L140.137 65.3193C140.137 65.5988 140.327 65.8231 140.581 65.9621" fill="#B1E5F1"/>
<path fill-rule="evenodd" clip-rule="evenodd" d="M140.818 58.508C140.788 60.0132 140.706 64.7912 140.818 64.9616C140.952 65.1626 141.259 65.4242 141.988 65.6282C142.779 65.8495 144.88 66.1656 145.239 65.6693C145.601 65.1679 146.367 61.4617 146.955 59.3765C146.309 59.0783 145.44 58.7763 144.217 58.5783C142.831 58.3541 141.665 58.4251 140.818 58.508" fill="#DD7B6A"/>
<path fill-rule="evenodd" clip-rule="evenodd" d="M142.181 63.6809C141.958 63.4305 141.568 63.3991 141.31 63.6106C141.052 63.8221 141.024 64.1966 141.247 64.4469C141.47 64.6973 141.86 64.7287 142.118 64.5172C142.376 64.3057 142.405 63.9313 142.181 63.6809" fill="#8F4419"/>
<path fill-rule="evenodd" clip-rule="evenodd" d="M143.965 64.8818C144.727 64.8818 144.728 63.698 143.965 63.698C143.203 63.698 143.202 64.8818 143.965 64.8818" fill="#8F4419"/>
<path fill-rule="evenodd" clip-rule="evenodd" d="M143.784 63.9934C144.546 63.9934 144.547 62.8096 143.784 62.8096C143.022 62.8096 143.021 63.9934 143.784 63.9934" fill="#8F4419"/>
<path fill-rule="evenodd" clip-rule="evenodd" d="M142.87 65.6025C143.632 65.6025 143.633 64.4187 142.87 64.4187C142.107 64.4187 142.106 65.6025 142.87 65.6025" fill="#8F4419"/>
<path fill-rule="evenodd" clip-rule="evenodd" d="M145.217 63.9521C145.979 63.9521 145.98 62.7683 145.217 62.7683C144.454 62.7683 144.453 63.9521 145.217 63.9521" fill="#8F4419"/>
<path fill-rule="evenodd" clip-rule="evenodd" d="M142.516 63.2803C143.278 63.2803 143.279 62.0964 142.516 62.0964C141.754 62.0964 141.753 63.2803 142.516 63.2803" fill="#8F4419"/>
<path fill-rule="evenodd" clip-rule="evenodd" d="M141.681 62.1687C142.443 62.1687 142.444 60.9849 141.681 60.9849C140.918 60.9849 140.917 62.1687 141.681 62.1687" fill="#8F4419"/>
<path fill-rule="evenodd" clip-rule="evenodd" d="M144.599 62.2507C145.361 62.2507 145.362 61.0669 144.599 61.0669C143.836 61.0669 143.835 62.2507 144.599 62.2507" fill="#8F4419"/>
<path fill-rule="evenodd" clip-rule="evenodd" d="M146.981 59.3309C146.889 59.8951 145.431 60.1283 143.724 59.8518C142.017 59.5753 140.709 58.8944 140.801 58.3302C140.893 57.7659 142.352 57.5327 144.058 57.8092C145.765 58.085 147.074 58.7666 146.981 59.3309" fill="#F8C6C5"/>
<path fill-rule="evenodd" clip-rule="evenodd" d="M143.698 58.9844C144.184 59.0823 144.394 58.8738 144.394 58.8738C144.394 58.8738 144.835 55.5488 145.158 53.4599C144.707 53.3687 144.295 53.3328 143.918 53.3373C143.6 55.4008 143.172 58.6743 143.172 58.6743C143.172 58.6743 143.254 58.8947 143.698 58.9844" fill="#709299"/>
<path fill-rule="evenodd" clip-rule="evenodd" d="M141.991 55.8215C142.056 55.7064 142.128 55.5958 142.209 55.4904C142.188 55.5174 142.166 55.545 142.146 55.5719C142.269 55.4135 142.411 55.273 142.571 55.1496C142.543 55.1706 142.516 55.1915 142.489 55.2132C142.617 55.1153 142.753 55.0301 142.893 54.9531C143.078 54.8514 143.154 54.5816 143.037 54.4023C142.917 54.2147 142.685 54.1497 142.487 54.258C142.24 54.3926 142.005 54.5562 141.802 54.7513C141.601 54.9441 141.432 55.1736 141.295 55.415C141.191 55.5981 141.245 55.8634 141.44 55.9658C141.631 56.0667 141.879 56.0173 141.991 55.8215" fill="white"/>
<path fill-rule="evenodd" clip-rule="evenodd" d="M145.158 53.46C145.203 53.17 145.245 52.9032 145.284 52.673C145.323 52.4428 145.275 52.2649 145.151 52.1289C145.016 51.9809 144.696 51.9039 144.53 51.9421C144.313 51.9921 144.125 52.0743 144.036 52.599C144 52.8172 143.959 53.0676 143.918 53.3374C143.878 53.5982 143.836 53.8785 143.794 54.1685C143.892 54.2671 144.093 54.4263 144.409 54.4779C144.685 54.5227 144.885 54.4697 145.016 54.4054C145.065 54.0743 145.112 53.7544 145.158 53.46" fill="#A1A2A2"/>
<path fill-rule="evenodd" clip-rule="evenodd" d="M145.163 52.4704C145.113 52.6415 144.866 52.7342 144.611 52.6774C144.357 52.6214 144.191 52.4375 144.242 52.2664C144.291 52.096 144.539 52.0033 144.793 52.0593C145.047 52.1154 145.213 52.2992 145.163 52.4704" fill="#777777"/>
<path fill-rule="evenodd" clip-rule="evenodd" d="M161.028 57.555C169.209 58.4907 177.39 59.4264 185.57 60.3621C186.719 60.4937 187.869 60.6252 189.018 60.7567C189.735 60.8389 190.337 60.0886 190.344 59.4309C190.351 58.6469 189.726 58.1865 189.018 58.1051C180.837 57.1693 172.657 56.2336 164.476 55.2979C163.327 55.1664 162.178 55.0349 161.028 54.9033C160.312 54.8219 159.709 55.5715 159.703 56.2292C159.695 57.0131 160.321 57.4743 161.028 57.555" fill="#A4A4A4"/>
<path fill-rule="evenodd" clip-rule="evenodd" d="M160.224 66.0854C165.618 66.7356 171.011 67.3858 176.404 68.0353C177.171 68.1279 177.937 68.2199 178.703 68.3125C179.419 68.3992 180.021 67.6414 180.028 66.9867C180.037 66.1997 179.41 65.7461 178.703 65.6616C173.309 65.0114 167.915 64.3612 162.521 63.711C161.756 63.6183 160.989 63.5264 160.224 63.4337C159.507 63.3478 158.905 64.1056 158.899 64.7595C158.89 65.5465 159.516 66.0002 160.224 66.0854" fill="#A4A4A4"/>
<path fill-rule="evenodd" clip-rule="evenodd" d="M157.899 24.4946L147.994 23.4281C146.658 23.2838 145.692 22.0835 145.835 20.748C145.979 19.4117 147.179 18.4453 148.515 18.5888L158.42 19.6553C159.756 19.7996 160.723 20.9998 160.579 22.3354C160.436 23.6717 159.236 24.6388 157.899 24.4946" fill="#BBBBBB"/>
<path fill-rule="evenodd" clip-rule="evenodd" d="M193.619 47.7581L146.847 42.7201C144.829 42.5033 143.368 40.6895 143.586 38.6708L144.151 33.4175C144.369 31.3974 146.184 29.9363 148.203 30.1553L194.972 35.2254C196.99 35.4444 198.449 37.2568 198.231 39.2747L197.668 44.4966C197.451 46.5152 195.638 47.9756 193.619 47.7581" fill="#BBBBBB"/>
<path fill-rule="evenodd" clip-rule="evenodd" d="M178.551 26.7286L168.646 25.6613C167.31 25.5178 166.344 24.3176 166.487 22.9813C166.632 21.6457 167.831 20.6786 169.167 20.8228L179.071 21.8893C180.408 22.0336 181.375 23.2331 181.231 24.5694C181.087 25.9057 179.887 26.8721 178.551 26.7286" fill="#BBBBBB"/>
<path fill-rule="evenodd" clip-rule="evenodd" d="M198.718 29.2601L188.813 28.1928C187.477 28.0493 186.51 26.849 186.655 25.5135V25.5127C186.799 24.1772 187.998 23.2101 189.335 23.3543L199.239 24.4208C200.575 24.5651 201.542 25.7654 201.398 27.1009C201.255 28.4372 200.054 29.4036 198.718 29.2601" fill="#BBBBBB"/>
<path fill-rule="evenodd" clip-rule="evenodd" d="M208.053 57.313C221.148 58.6687 232.964 41.4934 222.958 28.5698C213.823 16.7546 193.898 22.1178 191.522 37.4411C191.3 38.7371 191.232 40.027 191.307 41.2602C191.315 41.5053 191.311 41.7445 191.327 41.9933C191.41 43.2392 191.782 45.0254 192.63 46.9447C191.984 48.0396 189.74 51.9252 189.704 53.2032C189.665 54.5499 196.528 53.7458 197.871 53.5754C200.328 55.4251 203.635 56.8563 208.053 57.313" fill="#FFA800"/>
<path fill-rule="evenodd" clip-rule="evenodd" d="M208.086 42.6057C207.975 42.5713 207.866 42.5279 207.76 42.4734C206.777 41.9659 206.39 40.7582 206.897 39.7739L211.344 31.1447C211.85 30.1619 213.067 29.7755 214.042 30.2815C215.026 30.789 215.413 31.9967 214.905 32.981L210.458 41.6094C210.006 42.4868 208.996 42.8889 208.086 42.6057" fill="white"/>
<path fill-rule="evenodd" clip-rule="evenodd" d="M204.662 49.2487C204.55 49.2143 204.44 49.1687 204.332 49.1134C203.349 48.6045 202.966 47.3945 203.476 46.4124C203.985 45.4311 205.223 44.982 206.205 45.5014C207.187 46.0104 207.6 47.1636 207.09 48.1456L207.033 48.2577C206.579 49.1314 205.571 49.5312 204.662 49.2487" fill="white"/>
<path fill-rule="evenodd" clip-rule="evenodd" d="M179.107 114.721L143.373 111.137C139.086 110.707 135.959 106.883 136.389 102.596C136.82 98.3091 140.643 95.1821 144.93 95.6126L180.664 99.197C184.951 99.6267 188.078 103.451 187.648 107.738C187.218 112.026 183.394 115.152 179.107 114.721" fill="#BBBBBB"/>
<path fill-rule="evenodd" clip-rule="evenodd" d="M149.255 103.197C149.217 105.55 147.28 107.428 144.927 107.392C142.573 107.355 140.695 105.417 140.732 103.064C140.769 100.71 142.706 98.8321 145.06 98.8687C147.413 98.9053 149.291 100.843 149.255 103.197" fill="#E7E7E7"/>
<path fill-rule="evenodd" clip-rule="evenodd" d="M160.69 104.803C160.653 107.157 158.715 109.035 156.362 108.998C154.009 108.961 152.131 107.024 152.167 104.67C152.204 102.317 154.141 100.439 156.495 100.475C158.849 100.512 160.727 102.45 160.69 104.803" fill="#E7E7E7"/>
<path fill-rule="evenodd" clip-rule="evenodd" d="M171.692 105.826C171.655 108.179 169.718 110.057 167.364 110.021C165.011 109.984 163.133 108.046 163.17 105.693C163.206 103.339 165.144 101.461 167.498 101.498C169.851 101.534 171.729 103.472 171.692 105.826" fill="#E7E7E7"/>
<path fill-rule="evenodd" clip-rule="evenodd" d="M183.306 107.27C183.268 109.624 181.33 111.502 178.978 111.465C176.624 111.428 174.746 109.491 174.783 107.137C174.82 104.784 176.757 102.906 179.111 102.942C181.464 102.979 183.342 104.917 183.306 107.27" fill="#E7E7E7"/>
<path fill-rule="evenodd" clip-rule="evenodd" d="M186.526 96.0657L139.754 91.0277C137.735 90.8102 136.275 88.9971 136.492 86.9784L137.058 81.7252C137.275 79.7043 139.089 78.2439 141.109 78.4629L187.878 83.5331C189.896 83.752 191.355 85.5644 191.138 87.5823L190.575 92.8035C190.357 94.8228 188.544 96.2832 186.526 96.0657" fill="#BBBBBB"/>
<path fill-rule="evenodd" clip-rule="evenodd" d="M133.828 141.431C134.699 139.809 136.492 135.981 135.632 132.431C134.575 128.073 133.231 127.474 133.231 127.474C133.231 127.474 134.548 122.826 133.154 119.884C131.758 116.94 128.893 115.624 128.893 115.624C128.893 115.624 130.055 109.737 127.809 106.794C125.563 103.85 120.606 102.689 120.389 102.744C120.389 102.744 132.464 88.761 135.732 81.9718C139.001 75.1827 136.432 68.2658 131.72 68.635C125.7 69.1073 121.257 82.6856 107.525 95.7803C103.136 99.9663 97.0296 101.408 93.0065 103.671C88.9834 105.933 83.905 113.376 78.373 120.92C73.5689 127.47 58.1775 138.102 54.2635 140.746C80.4036 140.694 107.366 141.016 133.828 141.431" fill="#FFA4AC"/>
<path fill-rule="evenodd" clip-rule="evenodd" d="M114.335 103.748C116.278 103.619 118.281 103.713 120.215 103.927C120.682 103.98 121.132 103.478 121.111 103.031C121.088 102.501 120.716 102.19 120.215 102.134C118.281 101.92 116.278 101.826 114.335 101.955C113.868 101.986 113.416 102.345 113.438 102.852C113.459 103.311 113.834 103.781 114.335 103.748" fill="black"/>
<path fill-rule="evenodd" clip-rule="evenodd" d="M116.505 114.965C120.873 114.492 125.25 115.014 129.382 116.506C130.47 116.899 130.938 115.167 129.859 114.778C125.597 113.239 121.009 112.685 116.505 113.172C116.02 113.224 115.614 113.547 115.608 114.068C115.604 114.513 116.024 115.016 116.505 114.965" fill="black"/>
<path fill-rule="evenodd" clip-rule="evenodd" d="M120.233 127.512C124.511 126.806 128.933 127.078 133.034 128.519C133.85 128.805 134.37 129.765 134.659 130.699C135.091 132.088 135.162 133.567 135.021 135.008C134.839 136.872 134.194 138.674 133.125 140.212C132.465 141.161 134.019 142.059 134.673 141.117C136.734 138.149 137.412 134.087 136.495 130.593C136.159 129.318 135.546 127.952 134.41 127.199C133.631 126.683 132.584 126.465 131.695 126.228C130.513 125.912 129.311 125.695 128.097 125.546C125.317 125.202 122.516 125.328 119.756 125.784C118.621 125.97 119.102 127.699 120.233 127.512" fill="black"/>
<path fill-rule="evenodd" clip-rule="evenodd" d="M116.915 134.807C116.667 135.369 116.398 135.922 116.083 136.45C115.95 136.675 115.808 136.895 115.657 137.109C115.618 137.163 115.579 137.217 115.539 137.271C115.524 137.292 115.386 137.468 115.469 137.364C115.553 137.261 115.411 137.435 115.396 137.455C115.353 137.506 115.311 137.557 115.268 137.607C114.916 138.019 114.53 138.4 114.124 138.758C113.892 138.962 113.655 139.16 113.414 139.353C113.349 139.404 113.285 139.456 113.22 139.506C113.205 139.518 113.036 139.651 113.11 139.593C113.166 139.55 112.985 139.689 112.958 139.71C112.874 139.773 112.789 139.837 112.705 139.9C112.332 140.181 112.101 140.687 112.384 141.127C112.621 141.497 113.209 141.75 113.61 141.449C114.648 140.669 115.689 139.867 116.535 138.875C117.349 137.924 117.958 136.853 118.463 135.712C118.653 135.285 118.603 134.729 118.142 134.486C117.752 134.28 117.118 134.35 116.915 134.807" fill="black"/>
<path fill-rule="evenodd" clip-rule="evenodd" d="M116.065 138.641C118.625 139.377 121.308 139.486 123.924 139.002C124.4 138.915 124.671 138.338 124.551 137.9C124.412 137.4 123.926 137.186 123.447 137.274C121.151 137.697 118.782 137.557 116.542 136.912C115.43 136.592 114.957 138.321 116.065 138.641" fill="black"/>
<path fill-rule="evenodd" clip-rule="evenodd" d="M18.1928 129.705C18.13 129.694 18.0672 129.69 18.0052 129.689C17.9454 129.672 17.8841 129.657 17.8213 129.647C14.0673 129.07 10.5158 131.261 9.24451 134.691C10.0666 135.334 10.9336 135.917 11.8289 136.447C12.3483 133.905 14.7795 132.184 17.3699 132.582C17.4335 132.592 17.4955 132.595 17.5575 132.598C17.6173 132.615 17.6793 132.629 17.7414 132.639C20.414 133.05 22.254 135.557 21.8429 138.229C21.7727 138.689 21.6337 139.124 21.4468 139.531C22.4431 139.664 23.458 139.784 24.4924 139.893C24.6172 139.5 24.7143 139.096 24.7779 138.68C25.4363 134.39 22.4827 130.364 18.1928 129.705" fill="white"/>
<path fill-rule="evenodd" clip-rule="evenodd" d="M17.2842 134.501C15.6444 134.249 14.1108 135.374 13.859 137.014C13.8336 137.18 13.8313 137.343 13.8336 137.506C15.5675 138.314 17.3925 138.897 19.2595 139.216C19.527 138.843 19.7236 138.411 19.7976 137.926C20.0502 136.287 18.9246 134.753 17.2842 134.501" fill="white"/>
</svg>
