<svg width="16" height="16" viewBox="0 0 16 16" fill="none" xmlns="http://www.w3.org/2000/svg">
<g clip-path="url(#clip0_220_753129)">
<path fill-rule="evenodd" clip-rule="evenodd" d="M5.63258 5.27349L5.70377 5.30793L6.57181 5.85681C6.66211 5.91458 6.7758 5.92569 6.87461 5.89125L6.94579 5.85681L7.81064 5.30793C7.90095 5.25126 8.01464 5.24015 8.11345 5.27349L8.18463 5.30793L9.05161 5.85681C9.14192 5.91458 9.25454 5.92569 9.35335 5.89125L9.4256 5.85681L10.2936 5.30793C10.3839 5.25015 10.4966 5.23904 10.5964 5.27349L10.6676 5.30793L11.5367 5.85681C11.626 5.91458 11.7397 5.92569 11.8385 5.89125L11.9097 5.85681L12.6598 5.38348C12.7692 5.31349 12.919 5.3546 12.9742 5.46682L13.1283 5.78347C13.6893 6.92678 13.9857 8.16897 13.9985 9.43116C14.007 10.6667 13.9815 11.9989 13.889 13.0244C13.8104 13.8999 13.072 14.581 12.1625 14.6588L11.9904 14.6666H4.01019C3.0221 14.6666 2.19443 13.9544 2.11156 13.0244C2.01912 11.9989 1.99363 10.6667 2.00212 9.43116C2.01487 8.16897 2.3113 6.92678 2.87122 5.78347L3.02635 5.46682C3.07203 5.37348 3.18359 5.33015 3.28346 5.35793L3.34084 5.38348L4.08775 5.85681C4.17806 5.91458 4.29175 5.92569 4.39162 5.89125L4.46174 5.85681L5.32978 5.30793C5.42009 5.25015 5.53271 5.23904 5.63258 5.27349ZM8.00083 7.89453C6.82467 7.89453 5.8727 8.87895 5.8727 10.0923C5.8727 11.3056 6.82467 12.2889 8.00083 12.2889C9.17485 12.2889 10.1279 11.3056 10.1279 10.0923C10.1279 8.87895 9.17485 7.89453 8.00083 7.89453ZM8.00083 8.87117C8.65318 8.87117 9.18229 9.41783 9.18229 10.0923C9.18229 10.7656 8.65318 11.3122 8.00083 11.3122C7.34741 11.3122 6.8183 10.7656 6.8183 10.0923C6.8183 9.41783 7.34741 8.87117 8.00083 8.87117ZM13.5767 1.33325C13.8104 1.33325 13.9995 1.53658 13.9995 1.78657V3.28098C13.9995 3.46764 13.8954 3.63542 13.7339 3.70541L12.0446 4.44095C11.9383 4.48762 11.8183 4.47317 11.7237 4.4054L10.7909 3.72875C10.6761 3.64431 10.5231 3.64431 10.4084 3.72875L9.51591 4.37651C9.4001 4.45984 9.24817 4.45984 9.13342 4.37651L8.24201 3.72875C8.12726 3.64431 7.97533 3.64431 7.85952 3.72875L6.97023 4.3754C6.85442 4.45984 6.70249 4.45984 6.58668 4.37651L5.69527 3.72875C5.58052 3.64431 5.42753 3.64431 5.31278 3.72875L4.37781 4.40762C4.28537 4.47428 4.16744 4.48873 4.06332 4.4454L2.27305 3.70208C2.10943 3.63431 2 3.46542 2 3.27654V1.78657C2 1.53658 2.19018 1.33325 2.42393 1.33325H13.5767Z" fill="#757575"/>
</g>
<defs>
<clipPath id="clip0_220_753129">
<rect width="16" height="16" fill="white"/>
</clipPath>
</defs>
</svg>
