<svg width="64" height="74" viewBox="0 0 64 74" fill="none" xmlns="http://www.w3.org/2000/svg">
<ellipse opacity="0.48" cx="32" cy="62.0702" rx="4" ry="3.92982" fill="#00880D"/>
<g filter="url(#filter0_d_229_757434)">
<path fill-rule="evenodd" clip-rule="evenodd" d="M32 10C19.8497 10 10 19.8497 10 32C10 42.7319 17.6843 51.669 27.8509 53.6093C27.9052 53.7436 27.9551 53.874 28 54C28.7522 56.1088 30.1069 60.2083 31.0294 63.0239C31.3326 63.9494 32.6523 63.9447 32.9506 63.0175C33.8564 60.2022 35.1976 56.1072 36 54C36.0482 53.8734 36.1011 53.7425 36.1583 53.6076C46.3203 51.6636 54 42.7286 54 32C54 19.8497 44.1503 10 32 10Z" fill="white"/>
</g>
<rect x="11.5" y="11.5" width="41" height="41" rx="20.5" fill="#00AA13" stroke="white" stroke-width="3"/>
<path fill-rule="evenodd" clip-rule="evenodd" d="M42.8862 27.4679L33.8648 20.5142C33.8052 20.4666 33.7396 20.4361 33.6761 20.396C33.5807 20.3331 33.4874 20.2664 33.3861 20.2149C33.2967 20.1691 33.2033 20.1386 33.108 20.1024C33.0246 20.07 32.9412 20.0319 32.8538 20.0071C32.7505 19.9766 32.6472 19.9632 32.5439 19.9441C32.4585 19.9289 32.3751 19.9079 32.2897 19.9003C32.1924 19.8908 32.097 19.8965 32.0017 19.8965C31.9043 19.8965 31.809 19.8908 31.7117 19.9003C31.6263 19.9079 31.5429 19.9289 31.4574 19.9441C31.3542 19.9632 31.2489 19.9766 31.1476 20.0071C31.0602 20.0319 30.9808 20.07 30.8973 20.1005C30.802 20.1367 30.7047 20.1691 30.6133 20.2149C30.516 20.2645 30.4306 20.3274 30.3392 20.3846C30.2717 20.4303 30.1982 20.4628 30.1346 20.5142L21.1132 27.4679C19.8321 28.4574 19.6255 30.2573 20.6564 31.4891C21.2443 32.1926 22.1103 32.5568 22.9822 32.5568C23.6357 32.5568 24.2951 32.3528 24.8453 31.9276L29.0204 28.7072V40.0348C29.0204 41.6154 30.3531 42.8948 31.9997 42.8948C33.6463 42.8948 34.979 41.6154 34.979 40.0348V28.7072L39.1541 31.9276C39.7043 32.3528 40.3637 32.5568 41.0191 32.5568C41.8911 32.5568 42.7551 32.1926 43.343 31.4891C44.3739 30.2573 44.1693 28.4574 42.8862 27.4679" fill="white"/>
<defs>
<filter id="filter0_d_229_757434" x="0" y="0" width="64" height="73.7155" filterUnits="userSpaceOnUse" color-interpolation-filters="sRGB">
<feFlood flood-opacity="0" result="BackgroundImageFix"/>
<feColorMatrix in="SourceAlpha" type="matrix" values="0 0 0 0 0 0 0 0 0 0 0 0 0 0 0 0 0 0 127 0" result="hardAlpha"/>
<feOffset/>
<feGaussianBlur stdDeviation="5"/>
<feColorMatrix type="matrix" values="0 0 0 0 0 0 0 0 0 0 0 0 0 0 0 0 0 0 0.15 0"/>
<feBlend mode="normal" in2="BackgroundImageFix" result="effect1_dropShadow_229_757434"/>
<feBlend mode="normal" in="SourceGraphic" in2="effect1_dropShadow_229_757434" result="shape"/>
</filter>
</defs>
</svg>
