<svg width="24" height="24" viewBox="0 0 24 24" fill="none" xmlns="http://www.w3.org/2000/svg">
<g clip-path="url(#clip0_213_593978)">
<path fill-rule="evenodd" clip-rule="evenodd" d="M4.2966 6.7108C3.90404 6.32232 3.90073 5.68916 4.2892 5.2966C4.67768 4.90404 5.31084 4.90073 5.7034 5.2892L11.657 11.1809C12.1147 11.6307 12.1147 12.3693 11.6594 12.8168L5.7034 18.7108C5.31084 19.0993 4.67768 19.096 4.2892 18.7034C3.90073 18.3108 3.90404 17.6777 4.2966 17.2892L9.64145 12L4.2966 6.7108ZM12.2966 6.7108C11.904 6.32232 11.9007 5.68916 12.2892 5.2966C12.6777 4.90404 13.3108 4.90073 13.7034 5.2892L19.657 11.1809C20.1147 11.6307 20.1147 12.3693 19.6594 12.8168L13.7034 18.7108C13.3108 19.0993 12.6777 19.096 12.2892 18.7034C11.9007 18.3108 11.904 17.6777 12.2966 17.2892L17.6414 12L12.2966 6.7108Z" fill="#00880D"/>
</g>
<defs>
<clipPath id="clip0_213_593978">
<rect width="24" height="24" fill="white"/>
</clipPath>
</defs>
</svg>
