<svg width="1920" height="1080" viewBox="0 0 1920 1080" fill="none" xmlns="http://www.w3.org/2000/svg">
<rect width="1920" height="1080" fill="white"/>
<mask id="mask0_327_1531" style="mask-type:luminance" maskUnits="userSpaceOnUse" x="555" y="267" width="561" height="618">
<path fill-rule="evenodd" clip-rule="evenodd" d="M555 267.64H1115.1V884.77H555V267.64Z" fill="white"/>
</mask>
<g mask="url(#mask0_327_1531)">
<path fill-rule="evenodd" clip-rule="evenodd" d="M998.405 373.819C981.556 392.49 961.028 397.172 943.677 392.601C924.724 388.37 909.263 373.208 905.791 352.976C903.456 339.389 907.018 326.183 914.574 315.855C914.693 315.613 914.756 315.384 914.881 315.141C915.306 314.704 915.766 314.413 916.192 313.983C923.469 304.994 933.8 298.391 946.138 296.289C953.381 295.061 960.484 295.582 967.148 297.35C996.439 303.953 1017.26 336.614 998.405 373.819M735.093 773.266C712.758 788.816 681.983 783.42 666.34 761.197C650.705 738.975 656.135 708.346 678.469 692.788C700.804 677.238 731.587 682.634 747.222 704.857C762.857 727.08 757.427 757.709 735.093 773.266M1100.12 289.116L837.302 267.642L579.879 651.143C534.541 719.025 552.846 810.628 620.929 855.884L627.099 859.9C695.168 905.164 787.384 886.95 832.869 819.069L961.27 627.7L1090.14 435.568C1097.59 424.353 1103.35 412.679 1107.25 400.535C1120.02 363.483 1116.89 323.317 1100.12 289.116" fill="#06AED4"/>
</g>
<path fill-rule="evenodd" clip-rule="evenodd" d="M1226.6 789.033C1199.73 793.604 1174.22 775.626 1169.63 748.888C1165.04 722.15 1183.1 696.772 1209.97 692.201C1236.85 687.637 1262.36 705.608 1266.95 732.346C1271.54 759.084 1253.47 784.463 1226.6 789.033M1095.3 591.678C1068.43 596.249 1042.92 578.271 1038.33 551.533C1033.74 524.795 1051.8 499.417 1078.68 494.846C1105.55 490.275 1131.05 508.253 1135.65 534.991C1140.24 561.729 1122.17 587.108 1095.3 591.678M1338.78 647.647L1219.65 469.206C1172.87 398.654 1077.63 376.972 1009.27 421.855C940.9 466.744 919.089 565.262 965.876 635.814L1085.01 814.261C1131.79 884.806 1225.14 905.614 1293.51 860.732L1299.7 856.66C1368.06 811.778 1385.56 718.199 1338.78 647.647" fill="#06A94B"/>
<mask id="mask1_327_1531" style="mask-type:luminance" maskUnits="userSpaceOnUse" x="811" y="202" width="429" height="495">
<path fill-rule="evenodd" clip-rule="evenodd" d="M811.166 202.5H1239.7V696.873H811.166V202.5Z" fill="white"/>
</mask>
<g mask="url(#mask1_327_1531)">
<path fill-rule="evenodd" clip-rule="evenodd" d="M1095.29 591.678C1068.42 596.249 1042.92 578.271 1038.32 551.533C1033.73 524.795 1051.8 499.417 1078.67 494.846C1105.54 490.275 1131.05 508.253 1135.64 534.991C1140.24 561.729 1122.17 587.108 1095.29 591.678M1002.52 355.956C998.581 372.664 985.866 386.321 968.753 391.474C966.78 392.071 964.856 392.765 962.765 393.125C935.892 397.689 910.386 379.718 905.793 352.973C904.643 346.287 904.921 339.677 906.392 333.462C910.366 316.58 923.296 302.826 940.66 297.798C942.48 297.271 944.23 296.619 946.14 296.293C952.866 295.148 959.509 295.419 965.762 296.882C982.638 300.822 996.413 313.57 1001.53 330.723C1002.09 332.609 1002.77 334.447 1003.11 336.431C1004.26 343.131 1003.99 349.734 1002.52 355.956M1217.5 465.968C1215.8 463.201 1214.26 460.426 1212.42 457.804L1099.22 288.096L1090.91 275.612C1059.8 228.76 1008.21 202.618 957.188 202.479C929.813 202.403 902.586 209.873 878.725 225.507C810.258 270.403 789.269 370.204 837.005 442.178L958.672 624.37C959.139 625.14 959.753 625.91 960.373 626.68C960.527 626.992 960.527 627.145 960.833 627.297C1009.04 697.128 1101.46 717.839 1169 673.553L1175.2 669.572C1241.04 626.354 1258.9 536.707 1217.5 465.968" fill="#CD378D"/>
</g>
<path fill-rule="evenodd" clip-rule="evenodd" d="M1095.29 591.677C1068.42 596.248 1042.92 578.27 1038.32 551.532C1033.73 524.794 1051.8 499.416 1078.67 494.845C1105.54 490.274 1131.05 508.252 1135.64 534.99C1140.24 561.728 1122.17 587.106 1095.29 591.677M1218.06 467.022C1170.76 398.273 1076.91 377.451 1009.28 421.855C943.53 465.017 921.035 557.723 961.012 627.519C1009.26 697.176 1101.55 717.804 1169.02 673.566L1175.22 669.585C1240.74 626.582 1258.69 537.595 1218.06 467.022" fill="#00880D"/>
</svg>
