<svg width="16" height="16" viewBox="0 0 16 16" fill="none" xmlns="http://www.w3.org/2000/svg">
<path fill-rule="evenodd" clip-rule="evenodd" d="M8 1C8.413 1 8.723 1.219 8.996 1.403C9.269 1.587 9.519 1.75 9.664 1.789C9.809 1.828 10.106 1.812 10.435 1.789C10.764 1.766 11.143 1.732 11.5 1.938C11.857 2.145 12.018 2.489 12.162 2.785C12.306 3.081 12.441 3.346 12.548 3.452C12.654 3.559 12.919 3.694 13.215 3.838C13.511 3.982 13.855 4.143 14.062 4.5C14.268 4.857 14.234 5.236 14.211 5.565C14.188 5.894 14.172 6.191 14.211 6.336C14.25 6.481 14.413 6.731 14.597 7.004C14.781 7.277 15 7.587 15 8C15 8.413 14.781 8.723 14.597 8.996C14.413 9.269 14.25 9.519 14.211 9.664C14.172 9.809 14.188 10.106 14.211 10.435C14.234 10.763 14.268 11.143 14.062 11.5C13.855 11.857 13.511 12.018 13.215 12.162C12.919 12.306 12.654 12.441 12.548 12.548C12.441 12.654 12.306 12.919 12.162 13.215C12.018 13.511 11.857 13.855 11.5 14.062C11.143 14.268 10.764 14.24 10.435 14.217C10.106 14.194 9.809 14.172 9.664 14.211C9.519 14.25 9.269 14.413 8.996 14.597C8.723 14.781 8.413 15 8 15C7.587 15 7.277 14.781 7.004 14.597C6.731 14.413 6.481 14.25 6.336 14.211C6.191 14.172 5.894 14.194 5.565 14.217C5.237 14.24 4.857 14.268 4.5 14.062C4.143 13.855 3.982 13.511 3.838 13.215C3.694 12.919 3.559 12.654 3.452 12.548C3.346 12.441 3.081 12.306 2.785 12.162C2.489 12.018 2.145 11.857 1.938 11.5C1.732 11.143 1.76 10.763 1.783 10.435C1.806 10.106 1.828 9.809 1.789 9.664C1.75 9.519 1.587 9.269 1.403 8.996C1.219 8.723 1 8.413 1 8C1 7.587 1.219 7.277 1.403 7.004C1.587 6.731 1.75 6.481 1.789 6.336C1.828 6.191 1.806 5.894 1.783 5.565C1.76 5.236 1.732 4.857 1.938 4.5C2.145 4.143 2.489 3.982 2.785 3.838C3.081 3.694 3.346 3.559 3.452 3.452C3.559 3.346 3.694 3.081 3.838 2.785C3.982 2.489 4.143 2.145 4.5 1.938C4.857 1.732 5.236 1.766 5.565 1.789C5.894 1.812 6.191 1.828 6.336 1.789C6.481 1.75 6.731 1.587 7.004 1.403C7.277 1.219 7.587 1 8 1ZM7.19128 8.90488L6.26238 8.03581C5.95991 7.75283 5.48529 7.76864 5.20231 8.07112C4.91933 8.37359 4.93514 8.84821 5.23762 9.13119L6.35462 10.1762C6.82425 10.6061 7.55175 10.6061 8.01537 10.1818L11.7526 6.80715C12.0601 6.52955 12.0842 6.05529 11.8066 5.74786C11.5291 5.44044 11.0548 5.41625 10.7474 5.69385L7.19128 8.90488Z" fill="#00880D"/>
</svg>
