<svg width="16" height="16" viewBox="0 0 16 16" fill="none" xmlns="http://www.w3.org/2000/svg">
<path fill-rule="evenodd" clip-rule="evenodd" d="M7.99993 1.33325C9.84059 1.33325 11.3333 2.82525 11.3333 4.66659C11.3333 6.50792 9.84059 7.99992 7.99993 7.99992C6.15926 7.99992 4.66659 6.50792 4.66659 4.66659C4.66659 2.82525 6.15926 1.33325 7.99993 1.33325ZM11.0761 14.4466C9.02879 14.7399 6.97146 14.7399 4.92346 14.4466C3.71679 14.2733 2.76279 13.2726 2.68013 12.0559C2.66213 11.7959 2.66213 11.5373 2.68013 11.2773C2.76279 10.0606 3.71679 9.05992 4.92346 8.88659C6.97146 8.59325 9.02879 8.59325 11.0761 8.88659C12.2835 9.05992 13.2375 10.0606 13.3201 11.2773C13.3381 11.5373 13.3381 11.7959 13.3201 12.0559C13.2375 13.2726 12.2835 14.2733 11.0761 14.4466Z" fill="#BBBBBB"/>
</svg>
